<svg xmlns="http://www.w3.org/2000/svg" width="57.5" height="52.678" viewBox="0 0 57.5 52.678">
  <g id="ico-num-list" transform="translate(-5698 -8951.5)" opacity="0.15">
    <path id="Path_390" data-name="Path 390" d="M297.853,263.273a1.038,1.038,0,0,1-.184-.016,1,1,0,0,1-.8-1.166l2.506-13.46a1,1,0,0,1,1.967.366l-2.506,13.459A1,1,0,0,1,297.853,263.273Z" transform="translate(5447 8723.942)" fill="#a8a8a8"/>
    <path id="Path_391" data-name="Path 391" d="M276.058,263.273a1,1,0,0,1-.983-.816L272.567,249a1,1,0,0,1,1.967-.366l2.508,13.459a1,1,0,0,1-.8,1.167A1.055,1.055,0,0,1,276.058,263.273Z" transform="translate(5447 8723.942)" fill="#a8a8a8"/>
    <path id="Path_392" data-name="Path 392" d="M287.021,263.272a1,1,0,0,1-1-1V248.814a1,1,0,0,1,2,0v13.458A1,1,0,0,1,287.021,263.272Z" transform="translate(5447 8723.942)" fill="#a8a8a8"/>
    <path id="Subtraction_20" data-name="Subtraction 20" d="M52.831,28.533a1,1,0,0,1-1-1V16h2V27.533A1,1,0,0,1,52.831,28.533Zm-13.906,0a1,1,0,0,1-1-1V16h2V27.533A1,1,0,0,1,38.925,28.533Z" transform="translate(5687 8936)" fill="#a8a8a8" stroke="rgba(0,0,0,0)" stroke-width="1"/>
    <path id="Subtraction_18" data-name="Subtraction 18" d="M59.143,31.092a1.018,1.018,0,0,1-.106-.006A1,1,0,0,1,58.127,30c0-.04.417-4.782,1.262-10.7.175-1.228.339-2.309.5-3.3h2.025c-.235,1.418-.414,2.668-.544,3.581v.006c-.829,5.8-1.247,10.548-1.25,10.588A.983.983,0,0,1,59.143,31.092ZM68,31.065h0a1.006,1.006,0,0,1-.569-1.111l0-.021c.078-.389.289-1.455.566-2.953v4.085Z" transform="translate(5687 8936)" fill="#a8a8a8" stroke="rgba(0,0,0,0)" stroke-width="1"/>
    <g id="Group_331" data-name="Group 331" transform="translate(5447 8723.942)">
      <path id="Path_364" data-name="Path 364" d="M287.229,243.429s-1.341-3.527.312-5.4,4.228,0,4.228,0,.868-3.228,3.351-2.876,2.725,3.207,2.725,3.207,1.493-1.6,3.748,0,.384,5.075.384,5.075" fill="#fff"/>
      <path id="Path_396" data-name="Path 396" d="M301.976,244.43a.988.988,0,0,1-.474-.12,1,1,0,0,1-.406-1.354c.013-.025,1.421-2.718-.082-3.785-1.524-1.082-2.4-.172-2.438-.133a1,1,0,0,1-1.727-.6c-.008-.079-.219-2.067-1.87-2.3-1.588-.224-2.239,2.121-2.245,2.145a1,1,0,0,1-1.554.549c-.073-.052-1.864-1.313-2.888-.148s-.421,3.62-.129,4.389a1,1,0,1,1-1.869.711c-.064-.167-1.532-4.118.5-6.421a3.729,3.729,0,0,1,4.47-.76,3.93,3.93,0,0,1,4-2.446,4.063,4.063,0,0,1,3.221,2.669,4.014,4.014,0,0,1,3.69.713c2.349,1.667,1.536,4.785.685,6.364A1,1,0,0,1,301.976,244.43Z" fill="#a8a8a8"/>
    </g>
    <path id="Path_397" data-name="Path 397" d="M303.583,274.1H268.324a1,1,0,0,1-.977-.788l-8.3-38.2H252a1,1,0,0,1,0-2h7.851a1,1,0,0,1,.977.788l8.3,38.2h34.453a1,1,0,0,1,0,2Z" transform="translate(5447 8723.942)" fill="#a8a8a8"/>
    <g id="Group_332" data-name="Group 332" transform="translate(5447 8723.942)">
      <path id="Path_376" data-name="Path 376" d="M268.336,243.126s-2.031-6.009-1.507-9.8,6.495-3.745,7.35-.891-.333,10.691-.333,10.691" fill="#fff"/>
      <path id="Path_398" data-name="Path 398" d="M273.847,244.127a.968.968,0,0,1-.151-.011,1,1,0,0,1-.839-1.138c.321-2.12,1.012-8.092.365-10.255-.294-.983-1.681-1.414-2.832-1.331a2.6,2.6,0,0,0-2.571,2.072c-.485,3.509,1.445,9.285,1.464,9.343a1,1,0,1,1-1.894.64c-.086-.255-2.1-6.28-1.55-10.258a4.5,4.5,0,0,1,4.4-3.791c2.353-.177,4.363.95,4.9,2.751.892,2.982-.178,10.3-.3,11.128A1,1,0,0,1,273.847,244.127Z" fill="#a8a8a8"/>
    </g>
    <path id="Subtraction_28" data-name="Subtraction 28" d="M28.472,19.652a1,1,0,0,1-.763-.354L24.91,16h2.622l1.7,2.005a1,1,0,0,1-.115,1.409A1,1,0,0,1,28.472,19.652Z" transform="translate(5687 8936)" fill="#a8a8a8" stroke="rgba(0,0,0,0)" stroke-width="1"/>
    <path id="Subtraction_24" data-name="Subtraction 24" d="M30.613,19.319a1,1,0,0,1-.992-.887L29.344,16h2.013l.251,2.206a1,1,0,0,1-.879,1.107C30.683,19.317,30.646,19.319,30.613,19.319Z" transform="translate(5687 8936)" fill="#a8a8a8" stroke="rgba(0,0,0,0)" stroke-width="1"/>
    <g id="Group_336" data-name="Group 336" transform="translate(5447 8723.942)">
      <path id="Path_380" data-name="Path 380" d="M269.5,235.722a8.734,8.734,0,0,0,2.119,0" fill="#fff"/>
      <path id="Path_402" data-name="Path 402" d="M270.56,236.537a9.434,9.434,0,0,1-1.152-.07.75.75,0,0,1,.184-1.489,7.928,7.928,0,0,0,1.935,0,.75.75,0,0,1,.184,1.489A9.43,9.43,0,0,1,270.56,236.537Z" fill="#a8a8a8"/>
    </g>
    <g id="Group_337" data-name="Group 337" transform="translate(5447 8723.942)">
      <path id="Path_381" data-name="Path 381" d="M269.688,238.692a5.15,5.15,0,0,0,1.571.094" fill="#fff"/>
      <path id="Path_403" data-name="Path 403" d="M270.777,239.559a5.894,5.894,0,0,1-1.248-.134.75.75,0,1,1,.319-1.466,4.37,4.37,0,0,0,1.34.081.75.75,0,1,1,.141,1.493C271.146,239.55,270.961,239.559,270.777,239.559Z" fill="#a8a8a8"/>
    </g>
    <path id="Subtraction_29" data-name="Subtraction 29" d="M618.918,355.671h-37.8a1,1,0,0,1-.978-.794l-5.116-24.3a1,1,0,0,1,.978-1.206h42.918v2H577.231l4.7,22.3h36.743l.247-1.175v3.174Z" transform="translate(5133.082 8637)" fill="#a8a8a8" stroke="rgba(0,0,0,0)" stroke-width="1"/>
    <g id="Group_338" data-name="Group 338" transform="translate(5447 8723.942)">
      <path id="Union_1" data-name="Union 1" d="M277.434,243.383a1,1,0,0,1-1-1v-3a1,1,0,0,1,1-1h1.088v-2a1,1,0,0,1,1-1h7.4a1,1,0,0,1,1,1v2h1.088a1,1,0,0,1,1,1v3a1,1,0,0,1-1,1Z" fill="#fff"/>
      <path id="Path_405" data-name="Path 405" d="M289.01,244.383H277.434a2,2,0,0,1-2-2v-3a2,2,0,0,1,2-2h.087v-1a2,2,0,0,1,2-2h7.4a2,2,0,0,1,2,2v1h.088a2,2,0,0,1,2,2v3A2,2,0,0,1,289.01,244.383Zm-11.576-5v3H289.01v-3h-1.088a1,1,0,0,1-1-1v-2h-7.4v2a1,1,0,0,1-1,1Z" fill="#a8a8a8"/>
    </g>
    <g id="Group_339" data-name="Group 339" transform="translate(5447 8723.942)">
      <rect id="Rectangle_190" data-name="Rectangle 190" width="12.5" height="4" transform="translate(277.01 231.883)" fill="#fff"/>
      <path id="Path_406" data-name="Path 406" d="M289.51,236.883h-12.5a1,1,0,0,1-1-1v-4a1,1,0,0,1,1-1h12.5a1,1,0,0,1,1,1v4A1,1,0,0,1,289.51,236.883Zm-11.5-2h10.5v-2h-10.5Z" fill="#a8a8a8"/>
    </g>
    <g id="Group_340" data-name="Group 340" transform="translate(5447 8723.942)">
      <path id="Exclusion_1" data-name="Exclusion 1" d="M297.892,279.236a3.837,3.837,0,1,1,3.837-3.837h0A3.841,3.841,0,0,1,297.892,279.236Zm-20.461,0a3.837,3.837,0,1,1,3.834-3.84v0a3.841,3.841,0,0,1-3.836,3.837Z" fill="#fff"/>
      <path id="Path_407" data-name="Path 407" d="M277.429,280.236a4.837,4.837,0,0,1,0-9.674h0a4.837,4.837,0,1,1,0,9.674h0Zm0,0Zm0-1h0Zm0-6.674h0a2.837,2.837,0,0,0,0,5.674h0a2.837,2.837,0,0,0,0-5.674Zm20.466,7.674h0a4.837,4.837,0,1,1,4.837-4.837A4.843,4.843,0,0,1,297.892,280.236Zm0-7.674a2.837,2.837,0,1,0,2.837,2.836A2.84,2.84,0,0,0,297.892,272.562Z" fill="#a8a8a8"/>
    </g>
    <path id="Subtraction_26" data-name="Subtraction 26" d="M32.553,19.319a1,1,0,0,1-.976-1.228L32.065,16h2.053l-.593,2.546A.994.994,0,0,1,32.553,19.319Z" transform="translate(5687 8936)" fill="#a8a8a8" stroke="rgba(0,0,0,0)" stroke-width="1"/>
  </g>
</svg>
