<svg xmlns="http://www.w3.org/2000/svg" width="10.898" height="9.5" viewBox="0 0 10.898 9.5">
  <g id="ico-checked" transform="translate(-163 -235)">
    <path id="Path_566" data-name="Path 566" d="M167.076,244.39a.751.751,0,0,1-.589-.286l-2.868-3.64a.75.75,0,1,1,1.178-.928l2.272,2.883,5.485-7.127a.75.75,0,0,1,1.188.916L167.67,244.1a.753.753,0,0,1-.59.293Z" fill="#9cb82e"/>
    <path id="Path_567" data-name="Path 567" d="M166.618,244.5a.748.748,0,0,1-.589-.286l-2.868-3.639a.75.75,0,1,1,1.178-.929l2.272,2.883L172.1,235.4a.75.75,0,1,1,1.188.915l-6.072,7.89a.75.75,0,0,1-.59.292Z" fill="#fff"/>
  </g>
</svg>
