<svg xmlns="http://www.w3.org/2000/svg" width="45" height="47.129" viewBox="0 0 45 47.129">
  <g id="ico-customer" transform="translate(-75 -17)">
    <g id="_2864838703ffd280a8b3752e3fd8f8ac" data-name="2864838703ffd280a8b3752e3fd8f8ac" transform="translate(75 17)" fill="#d5d5d5" stroke="#bcbcbc" stroke-width="1.5">
      <circle cx="22.5" cy="22.5" r="22.5" stroke="none"/>
      <circle cx="22.5" cy="22.5" r="21.75" fill="none"/>
    </g>
    <path id="Subtraction_10" data-name="Subtraction 10" d="M-350.671,17.7v0a16.752,16.752,0,0,0,4.564-1.954,14.867,14.867,0,0,0,3.606-3.1,14.774,14.774,0,0,1-3.556,3.076A16.709,16.709,0,0,1-350.671,17.7Zm-9.442-.108a16.832,16.832,0,0,1-3.6-1.5,14.985,14.985,0,0,1-4.1-3.345,15.049,15.049,0,0,0,4.1,3.344,16.863,16.863,0,0,0,3.592,1.5Zm4.914-3.043a23.472,23.472,0,0,1-8.123-1.425,21.274,21.274,0,0,1-6.635-3.883l-.042-.1C-367.8,3.672-361.857,0-355.2,0s12.605,3.673,14.8,9.139l-.04.1a21.327,21.327,0,0,1-6.637,3.884A23.488,23.488,0,0,1-355.2,14.547Z" transform="translate(452.836 46.431)" fill="#5f5f5f"/>
    <g id="Group_387" data-name="Group 387" transform="translate(0 2)">
      <circle id="Ellipse_569" data-name="Ellipse 569" cx="10.5" cy="10.5" r="10.5" transform="translate(87 22)" fill="#5f5f5f"/>
      <circle id="Ellipse_580" data-name="Ellipse 580" cx="1" cy="1" r="1" transform="translate(92.5 32)" fill="#fff" opacity="0.409"/>
      <circle id="Ellipse_581" data-name="Ellipse 581" cx="1" cy="1" r="1" transform="translate(100.5 32)" fill="#fff" opacity="0.409"/>
      <path id="Path_433" data-name="Path 433" stroke="#fff" d="M7832.214,10191a2.232,2.232,0,0,0,3.691,0" fill="none" transform="translate(-7736.5 -10155)" stroke-linecap="round" stroke-linejoin="round" stroke-width="0.7" opacity="0.409"/>
    </g>
    <g id="_2864838703ffd280a8b3752e3fd8f8ac-2" data-name="2864838703ffd280a8b3752e3fd8f8ac" transform="translate(75 17)" fill="none" stroke="#bcbcbc" stroke-width="1.5">
      <circle cx="22.5" cy="22.5" r="22.5" stroke="none"/>
      <circle cx="22.5" cy="22.5" r="21.75" fill="none"/>
    </g>
  </g>
</svg>
