<svg xmlns="http://www.w3.org/2000/svg" xmlns:xlink="http://www.w3.org/1999/xlink" width="147" height="144" viewBox="0 0 147 144">
  <defs>
    <linearGradient id="linear-gradient" x1="0.5" y1="1" x2="0.5" gradientUnits="objectBoundingBox">
      <stop offset="0" stop-color="#1d75ed" stop-opacity="0.212"/>
      <stop offset="1" stop-color="#2964b5" stop-opacity="0.392"/>
    </linearGradient>
    <linearGradient id="linear-gradient-2" x1="0.5" x2="0.5" y2="1" gradientUnits="objectBoundingBox">
      <stop offset="0" stop-color="#4d90eb" stop-opacity="0.365"/>
      <stop offset="1" stop-color="#154e9b" stop-opacity="0.212"/>
    </linearGradient>
    <linearGradient id="linear-gradient-3" x1="0.5" x2="0.5" y2="1" gradientUnits="objectBoundingBox">
      <stop offset="0" stop-color="#1d75ed" stop-opacity="0.129"/>
      <stop offset="1" stop-color="#0f3b77" stop-opacity="0.212"/>
    </linearGradient>
    <linearGradient id="linear-gradient-4" x1="0.5" x2="0.5" y2="1" gradientUnits="objectBoundingBox">
      <stop offset="0" stop-color="#a1be2f"/>
      <stop offset="1" stop-color="#c3e53e"/>
    </linearGradient>
  </defs>
  <g id="ico-kiosk" transform="translate(-15 -270)">
    <g id="Group_477" data-name="Group 477" transform="translate(15 270)">
      <path id="Subtraction_52" data-name="Subtraction 52" d="M77.471,116.489A76.978,76.978,0,0,1,47.316,110.4a77.472,77.472,0,0,1-13.161-7.142A77.688,77.688,0,0,1,6.088,69.174,77.43,77.43,0,0,1,10.529,0h110.8a10.012,10.012,0,0,1,9.866,10V94.838a78.12,78.12,0,0,1-10.406,8.42,77.541,77.541,0,0,1-13.16,7.142A76.97,76.97,0,0,1,77.471,116.489Z" transform="translate(131.191 144) rotate(180)" opacity="0.598" fill="url(#linear-gradient)"/>
      <circle id="Ellipse_11" data-name="Ellipse 11" cx="40.5" cy="40.5" r="40.5" transform="translate(66 5)" fill="url(#linear-gradient-2)"/>
      <circle id="Ellipse_12" data-name="Ellipse 12" cx="10.5" cy="10.5" r="10.5" transform="translate(20)" opacity="0.645" fill="url(#linear-gradient-3)"/>
    </g>
    <g id="Group_574" data-name="Group 574" transform="translate(-0.039 10.96)">
      <g id="Group_571" data-name="Group 571" transform="translate(37 277)">
        <g id="Group_570" data-name="Group 570" transform="translate(0 0)">
          <path id="Rectangle_938" data-name="Rectangle 938" d="M3,0H89a3,3,0,0,1,3,3v97.28a0,0,0,0,1,0,0H0a0,0,0,0,1,0,0V3A3,3,0,0,1,3,0Z" fill="#454545"/>
          <g id="Group_567" data-name="Group 567" transform="translate(63.48 16.56)" opacity="0.8">
            <rect id="Rectangle_945" data-name="Rectangle 945" width="19.32" height="14.72" rx="3" transform="translate(0 0)" fill="#959595"/>
            <circle id="Ellipse_599" data-name="Ellipse 599" cx="3.22" cy="3.22" r="3.22" transform="translate(6.44 4.14)" fill="#cecece"/>
            <line id="Line_68" data-name="Line 68" y2="1.84" transform="translate(9.66 6.44)" fill="none" stroke="#707070" stroke-linecap="round" stroke-width="1" opacity="0.683"/>
          </g>
          <g id="Rectangle_943" data-name="Rectangle 943" transform="translate(63.48 56.12)" fill="none" stroke="#454545" stroke-width="1">
            <rect width="19.32" height="26.68" rx="2" stroke="none"/>
            <rect x="0.5" y="0.5" width="18.32" height="25.68" rx="1.5" fill="none"/>
          </g>
          <g id="Group_572" data-name="Group 572" transform="translate(63.48 47.368)">
            <path id="Path_601" data-name="Path 601" d="M2.76,0h13.8l2.76,22.08H0Z" transform="translate(0 5.072)" fill="#717171" opacity="0.494"/>
            <g id="Group_566" data-name="Group 566" opacity="0.573">
              <path id="Path_604" data-name="Path 604" d="M0,0H19.32L16.56,4.6H2.76Z" transform="translate(0 0.472)" fill="#b9b9b9"/>
              <path id="Path_602" data-name="Path 602" d="M.676-.513l2.146,5L.977,25.679.9,18.664Z" transform="translate(-0.054 0.513)" fill="#d8d8d8"/>
              <path id="Path_605" data-name="Path 605" d="M2.9.1.676,4.54l2.146,21.3L2.9,18.826Z" transform="translate(15.586 0.464)" fill="#d8d8d8"/>
            </g>
            <rect id="Rectangle_949" data-name="Rectangle 949" width="19.32" height="26.68" transform="translate(0 0.472)" fill="none" stroke="#454545" stroke-width="2"/>
          </g>
          <rect id="Rectangle_947" data-name="Rectangle 947" width="17.48" height="3.68" rx="1.84" transform="translate(64.4 78.2)" fill="#717171"/>
          <rect id="Rectangle_951" data-name="Rectangle 951" width="17.48" height="3.68" rx="1.84" transform="translate(64.4 37.72)" fill="#fff" opacity="0.6"/>
          <path id="Path_606" data-name="Path 606" d="M1.84,0H9.2a.92.92,0,0,1,.92.92l.92,5.52a.92.92,0,0,1-.92.92H.92A.92.92,0,0,1,0,6.44L.92.92A.92.92,0,0,1,1.84,0Z" transform="translate(67.62 39.04)" fill="url(#linear-gradient-4)"/>
          <path id="Subtraction_68" data-name="Subtraction 68" d="M11.96,11.041h-.188L10.024,9.2,8.645,10.654,7.266,9.2,5.885,10.654,4.505,9.2,3.124,10.654,1.746,9.2,0,11.039.919,0h10.12l.921,11.04Z" transform="translate(67.161 80.559)" fill="#fff" stroke="#fff" stroke-linecap="round" stroke-linejoin="round" stroke-width="1"/>
          <g id="Path_614" data-name="Path 614" transform="translate(0 116.84)" fill="#838383">
            <path d="M 87.94558715820313 8.70000171661377 L 4.054423332214355 8.70000171661377 L 0.7412879467010498 0.5000017881393433 L 91.25871276855469 0.5000017881393433 L 87.94558715820313 8.70000171661377 Z" stroke="none"/>
            <path d="M 1.482574462890625 1.000001907348633 L 4.391670227050781 8.20000171661377 L 87.60832977294922 8.20000171661377 L 90.51742553710938 1.000001907348633 L 1.482574462890625 1.000001907348633 M 0 1.9073486328125e-06 L 92 1.9073486328125e-06 L 88.28282165527344 9.20000171661377 L 3.717178344726563 9.20000171661377 L 0 1.9073486328125e-06 Z" stroke="none" fill="#838383"/>
          </g>
          <rect id="Rectangle_939" data-name="Rectangle 939" width="92" height="16.56" transform="translate(0 100.28)" fill="#626262"/>
          <rect id="Rectangle_942" data-name="Rectangle 942" width="23.92" height="5.52" rx="2.76" transform="translate(34.04 105.8)" opacity="0.42"/>
          <g id="Group_575" data-name="Group 575" transform="translate(3.193 4.14)">
            <rect id="Rectangle_940" data-name="Rectangle 940" width="43.293" height="56.121" rx="1" transform="translate(9.2 9.2)" fill="#fcfcfc"/>
            <path id="Path_597" data-name="Path 597" d="M0,0H43.293L40.086,5.612H3.207Z" transform="translate(9.2 9.2)" fill="#b9b9b9"/>
            <path id="Path_598" data-name="Path 598" d="M0,0H56.121L50.509,3.207H5.612Z" transform="translate(52.493 9.2) rotate(90)" fill="#d8d8d8"/>
            <path id="Path_600" data-name="Path 600" d="M0,3.207H56.121L50.509,0H5.612Z" transform="translate(12.407 9.2) rotate(90)" fill="#d8d8d8"/>
            <line id="Line_54" data-name="Line 54" x2="6.414" transform="translate(16.416 19.622)" fill="none" stroke="#97b22a" stroke-linecap="round" stroke-width="1.5"/>
            <line id="Line_55" data-name="Line 55" x2="4.81" transform="translate(40.467 19.622)" fill="none" stroke="#97b22a" stroke-linecap="round" stroke-width="1.5"/>
            <line id="Line_56" data-name="Line 56" x2="13.629" transform="translate(16.416 26.036)" fill="none" stroke="#a8c631" stroke-linecap="round" stroke-width="1.5" opacity="0.402"/>
            <line id="Line_57" data-name="Line 57" x2="6.414" transform="translate(38.864 26.036)" fill="none" stroke="#a8c631" stroke-linecap="round" stroke-width="1.5" opacity="0.779"/>
            <line id="Line_58" data-name="Line 58" x2="13.629" transform="translate(16.416 35.657)" fill="none" stroke="#a8c631" stroke-linecap="round" stroke-width="1.5" opacity="0.779"/>
            <line id="Line_59" data-name="Line 59" x2="6.414" transform="translate(38.864 35.657)" fill="none" stroke="#a8c631" stroke-linecap="round" stroke-width="1.5"/>
            <line id="Line_60" data-name="Line 60" x2="13.629" transform="translate(16.416 30.847)" fill="none" stroke="#a8c631" stroke-linecap="round" stroke-width="1.5" opacity="0.506"/>
            <line id="Line_61" data-name="Line 61" x2="6.414" transform="translate(38.864 30.847)" fill="none" stroke="#a8c631" stroke-linecap="round" stroke-width="1.5" opacity="0.748"/>
            <line id="Line_62" data-name="Line 62" x2="13.629" transform="translate(16.416 40.467)" fill="none" stroke="#a8c631" stroke-linecap="round" stroke-width="1.5"/>
            <line id="Line_63" data-name="Line 63" x2="6.414" transform="translate(38.864 40.467)" fill="none" stroke="#a8c631" stroke-linecap="round" stroke-width="1.5" opacity="0.506"/>
            <line id="Line_64" data-name="Line 64" x2="13.629" transform="translate(16.416 50.088)" fill="none" stroke="#a8c631" stroke-linecap="round" stroke-width="1.5" opacity="0.748"/>
            <line id="Line_65" data-name="Line 65" x2="6.414" transform="translate(38.864 50.088)" fill="none" stroke="#a8c631" stroke-linecap="round" stroke-width="1.5" opacity="0.402"/>
            <line id="Line_66" data-name="Line 66" x2="13.629" transform="translate(16.416 45.278)" fill="none" stroke="#a8c631" stroke-linecap="round" stroke-width="1.5" opacity="0.506"/>
            <line id="Line_67" data-name="Line 67" x2="6.414" transform="translate(38.864 45.278)" fill="none" stroke="#a8c631" stroke-linecap="round" stroke-width="1.5"/>
            <path id="Path_599" data-name="Path 599" d="M0,0H43.293L40.086,5.612H3.207Z" transform="translate(52.493 65.321) rotate(180)" fill="#b9b9b9"/>
            <g id="Rectangle_948" data-name="Rectangle 948" transform="translate(9.2 9.2)" fill="none" stroke="#454545" stroke-linejoin="round" stroke-width="1">
              <rect width="43.293" height="56.121" rx="1" stroke="none"/>
              <rect x="-0.5" y="-0.5" width="44.293" height="57.121" rx="1.5" fill="none"/>
            </g>
          </g>
          <rect id="Rectangle_952" data-name="Rectangle 952" width="49.68" height="1.84" transform="translate(9.2 85.56)" fill="#393939" stroke="#393939" stroke-linejoin="round" stroke-width="1"/>
          <path id="Path_615" data-name="Path 615" d="M6.44,0h36.8l6.44,6.77H0Z" transform="translate(9.2 78.2)" fill="#5b5b5b" stroke="#5b5b5b" stroke-linejoin="round" stroke-width="1"/>
          <path id="Path_616" data-name="Path 616" d="M3.114,0H20.906L24.02,3.273H0Z" transform="translate(16.649 79.948)" fill="#9c9c9c" stroke="#9c9c9c" stroke-width="1"/>
          <line id="Line_69" data-name="Line 69" x1="4.6" y2="6.44" transform="translate(19.919 78.66)" fill="none" stroke="#5b5b5b" stroke-width="0.7"/>
          <line id="Line_70" data-name="Line 70" x2="4.6" y2="6.44" transform="translate(32.799 78.66)" fill="none" stroke="#5b5b5b" stroke-width="0.7"/>
          <line id="Line_71" data-name="Line 71" y2="6.44" transform="translate(28.659 78.66)" fill="none" stroke="#5b5b5b" stroke-width="0.7"/>
          <line id="Line_72" data-name="Line 72" x2="24.439" transform="translate(16.239 81.42)" fill="none" stroke="#5b5b5b" stroke-width="0.7"/>
          <path id="Path_618" data-name="Path 618" d="M42.08,79.4l1.8,1.8h7.771l-1.8-1.8Z" transform="translate(-0.861)" fill="#fede2b"/>
          <path id="Path_619" data-name="Path 619" d="M42.08,79.4l1.8,1.8h7.771l-1.8-1.8Z" transform="translate(1.139 2.379)" fill="#ff001f"/>
        </g>
      </g>
    </g>
  </g>
</svg>
