<svg xmlns="http://www.w3.org/2000/svg" width="298" height="130" viewBox="0 0 298 130">
  <g id="ico-barcode-ex" transform="translate(-39 -334)">
    <rect id="Rectangle_876" data-name="Rectangle 876" width="298" height="130" rx="3" transform="translate(39 334)" fill="#fdfdfd"/>
    <g id="Subtraction_61" data-name="Subtraction 61" transform="translate(2291.867 5980.867)" fill="#e5e5e5" stroke-linecap="round" stroke-linejoin="round">
      <path d="M -1967.866943359375 -5532.884765625 L -1968.292114257813 -5533.6015625 L -1971.451538085938 -5538.3408203125 C -1971.544799804688 -5538.48095703125 -1971.7001953125 -5538.564453125 -1971.86767578125 -5538.564453125 C -1972.03515625 -5538.564453125 -1972.190551757813 -5538.48095703125 -1972.283447265625 -5538.34130859375 L -1975.451416015625 -5533.59033203125 L -1975.867309570313 -5532.966796875 L -1976.283325195313 -5533.59033203125 L -1979.452758789063 -5538.3408203125 C -1979.5458984375 -5538.4814453125 -1979.70068359375 -5538.564453125 -1979.86767578125 -5538.564453125 C -1980.035034179688 -5538.564453125 -1980.1904296875 -5538.48095703125 -1980.283325195313 -5538.34130859375 L -1983.452270507813 -5533.59033203125 L -1983.868286132813 -5532.966796875 L -1984.284301757813 -5533.59033203125 L -1987.45263671875 -5538.3408203125 C -1987.545776367188 -5538.4814453125 -1987.700805664063 -5538.564453125 -1987.867919921875 -5538.564453125 C -1988.03564453125 -5538.564453125 -1988.191650390625 -5538.48095703125 -1988.28515625 -5538.3408203125 L -1991.44970703125 -5533.59033203125 L -1991.865478515625 -5532.96630859375 L -1992.28173828125 -5533.59033203125 L -1995.451171875 -5538.3408203125 C -1995.544555664063 -5538.48095703125 -1995.699951171875 -5538.564453125 -1995.867309570313 -5538.564453125 C -1996.034301757813 -5538.564453125 -1996.189086914063 -5538.4814453125 -1996.281372070313 -5538.341796875 L -1999.45068359375 -5533.59033203125 L -1999.86669921875 -5532.966796875 L -2000.28271484375 -5533.59033203125 L -2003.451171875 -5538.3408203125 C -2003.54443359375 -5538.48095703125 -2003.699951171875 -5538.564453125 -2003.867309570313 -5538.564453125 C -2004.034790039063 -5538.564453125 -2004.190307617188 -5538.48095703125 -2004.283325195313 -5538.34130859375 L -2007.44970703125 -5533.59033203125 L -2007.865478515625 -5532.96630859375 L -2008.281616210938 -5533.59033203125 L -2011.451049804688 -5538.3408203125 C -2011.54443359375 -5538.48095703125 -2011.699829101563 -5538.564453125 -2011.867309570313 -5538.564453125 C -2012.034790039063 -5538.564453125 -2012.190185546875 -5538.48095703125 -2012.283081054688 -5538.34130859375 L -2015.451904296875 -5533.59033203125 L -2015.867919921875 -5532.966796875 L -2016.283935546875 -5533.59033203125 L -2019.452514648438 -5538.3408203125 C -2019.545532226563 -5538.4814453125 -2019.700439453125 -5538.564453125 -2019.867431640625 -5538.564453125 C -2020.034790039063 -5538.564453125 -2020.190185546875 -5538.48095703125 -2020.283203125 -5538.34130859375 L -2023.450927734375 -5533.59033203125 L -2023.866821289063 -5532.966796875 L -2024.282836914063 -5533.59033203125 L -2027.452270507813 -5538.3408203125 C -2027.545654296875 -5538.48095703125 -2027.700805664063 -5538.564453125 -2027.867797851563 -5538.564453125 C -2028.034912109375 -5538.564453125 -2028.190063476563 -5538.48095703125 -2028.282958984375 -5538.34130859375 L -2031.451782226563 -5533.59033203125 L -2031.867797851563 -5532.966796875 L -2032.283813476563 -5533.59033203125 L -2035.452392578125 -5538.3408203125 C -2035.545532226563 -5538.4814453125 -2035.700439453125 -5538.564453125 -2035.867797851563 -5538.564453125 C -2036.03515625 -5538.564453125 -2036.190185546875 -5538.4814453125 -2036.282470703125 -5538.341796875 L -2039.449462890625 -5533.59033203125 L -2039.865234375 -5532.96630859375 L -2040.281372070313 -5533.59033203125 L -2043.450805664063 -5538.3408203125 C -2043.544189453125 -5538.48095703125 -2043.699584960938 -5538.564453125 -2043.867065429688 -5538.564453125 C -2044.034545898438 -5538.564453125 -2044.18994140625 -5538.48095703125 -2044.282836914063 -5538.34130859375 L -2047.450805664063 -5533.59033203125 L -2047.866821289063 -5532.96630859375 L -2048.28271484375 -5533.59033203125 L -2051.450927734375 -5538.3408203125 C -2051.544189453125 -5538.48095703125 -2051.699462890625 -5538.564453125 -2051.866943359375 -5538.564453125 C -2052.0341796875 -5538.564453125 -2052.18994140625 -5538.48095703125 -2052.283203125 -5538.3408203125 L -2055.45068359375 -5533.59033203125 L -2055.866455078125 -5532.966796875 L -2056.28271484375 -5533.59033203125 L -2059.4521484375 -5538.3408203125 C -2059.54541015625 -5538.48095703125 -2059.700439453125 -5538.564453125 -2059.867431640625 -5538.564453125 C -2060.034423828125 -5538.564453125 -2060.189697265625 -5538.48095703125 -2060.28271484375 -5538.34130859375 L -2063.451416015625 -5533.59033203125 L -2063.867431640625 -5532.966796875 L -2064.283447265625 -5533.59033203125 L -2067.4521484375 -5538.3408203125 C -2067.54541015625 -5538.48095703125 -2067.700927734375 -5538.564453125 -2067.8681640625 -5538.564453125 C -2068.03564453125 -5538.564453125 -2068.191162109375 -5538.48095703125 -2068.2841796875 -5538.34130859375 L -2071.450439453125 -5533.59033203125 L -2071.8662109375 -5532.96630859375 L -2072.282470703125 -5533.59033203125 L -2075.451904296875 -5538.3408203125 C -2075.545166015625 -5538.48095703125 -2075.700439453125 -5538.564453125 -2075.867919921875 -5538.564453125 C -2076.034912109375 -5538.564453125 -2076.18994140625 -5538.4814453125 -2076.2822265625 -5538.341796875 L -2079.450439453125 -5533.59033203125 L -2079.866455078125 -5532.96630859375 L -2080.282470703125 -5533.59033203125 L -2083.450439453125 -5538.3408203125 C -2083.543701171875 -5538.48095703125 -2083.698974609375 -5538.564453125 -2083.866455078125 -5538.564453125 C -2084.0341796875 -5538.564453125 -2084.189453125 -5538.48095703125 -2084.2822265625 -5538.34130859375 L -2087.450439453125 -5533.59033203125 L -2087.866455078125 -5532.966796875 L -2088.282470703125 -5533.59033203125 L -2091.451904296875 -5538.3408203125 C -2091.544921875 -5538.4814453125 -2091.69970703125 -5538.564453125 -2091.86669921875 -5538.564453125 C -2092.0341796875 -5538.564453125 -2092.189453125 -5538.48095703125 -2092.2822265625 -5538.34130859375 L -2095.451171875 -5533.59033203125 L -2095.8671875 -5532.966796875 L -2096.283203125 -5533.59033203125 L -2099.45166015625 -5538.3408203125 C -2099.544921875 -5538.48095703125 -2099.700439453125 -5538.564453125 -2099.867919921875 -5538.564453125 C -2100.035400390625 -5538.564453125 -2100.19091796875 -5538.48095703125 -2100.283935546875 -5538.34130859375 L -2103.4501953125 -5533.59033203125 L -2103.865966796875 -5532.96630859375 L -2104.2822265625 -5533.59033203125 L -2107.45166015625 -5538.3408203125 C -2107.544921875 -5538.48095703125 -2107.7001953125 -5538.564453125 -2107.86767578125 -5538.564453125 C -2108.03466796875 -5538.564453125 -2108.189697265625 -5538.4814453125 -2108.281982421875 -5538.341796875 L -2111.4501953125 -5533.59033203125 L -2111.8662109375 -5532.966796875 L -2112.2822265625 -5533.59033203125 L -2115.45166015625 -5538.3408203125 C -2115.544921875 -5538.48095703125 -2115.7001953125 -5538.564453125 -2115.86767578125 -5538.564453125 C -2116.035400390625 -5538.564453125 -2116.190673828125 -5538.48095703125 -2116.283447265625 -5538.34130859375 L -2119.451416015625 -5533.59033203125 L -2119.8671875 -5532.966796875 L -2120.283447265625 -5533.59033203125 L -2123.452880859375 -5538.3408203125 C -2123.5458984375 -5538.4814453125 -2123.700927734375 -5538.564453125 -2123.867919921875 -5538.564453125 C -2124.035400390625 -5538.564453125 -2124.190673828125 -5538.48095703125 -2124.283447265625 -5538.34130859375 L -2127.450927734375 -5533.59033203125 L -2127.866943359375 -5532.96630859375 L -2128.282958984375 -5533.59033203125 L -2131.451416015625 -5538.3408203125 C -2131.544677734375 -5538.48095703125 -2131.699951171875 -5538.564453125 -2131.8671875 -5538.564453125 C -2132.03466796875 -5538.564453125 -2132.1904296875 -5538.48095703125 -2132.283447265625 -5538.3408203125 L -2135.449951171875 -5533.59033203125 L -2135.86572265625 -5532.96630859375 L -2136.281982421875 -5533.59033203125 L -2139.451416015625 -5538.3408203125 C -2139.544677734375 -5538.48095703125 -2139.699951171875 -5538.564453125 -2139.867431640625 -5538.564453125 C -2140.034423828125 -5538.564453125 -2140.189208984375 -5538.4814453125 -2140.281494140625 -5538.341796875 L -2143.450927734375 -5533.59033203125 L -2143.866943359375 -5532.966796875 L -2144.282958984375 -5533.59033203125 L -2147.451416015625 -5538.3408203125 C -2147.544677734375 -5538.48095703125 -2147.699951171875 -5538.564453125 -2147.867431640625 -5538.564453125 C -2148.034912109375 -5538.564453125 -2148.1904296875 -5538.48095703125 -2148.283447265625 -5538.34130859375 L -2151.451171875 -5533.59033203125 L -2151.866943359375 -5532.966796875 L -2152.283203125 -5533.59033203125 L -2155.45263671875 -5538.3408203125 C -2155.5458984375 -5538.48095703125 -2155.70068359375 -5538.564453125 -2155.86767578125 -5538.564453125 C -2156.034912109375 -5538.564453125 -2156.1904296875 -5538.48095703125 -2156.283447265625 -5538.34130859375 L -2159.4521484375 -5533.59033203125 L -2159.8681640625 -5532.966796875 L -2160.2841796875 -5533.59033203125 L -2163.45263671875 -5538.3408203125 C -2163.545654296875 -5538.4814453125 -2163.700439453125 -5538.564453125 -2163.86767578125 -5538.564453125 C -2164.03564453125 -5538.564453125 -2164.19140625 -5538.48095703125 -2164.284912109375 -5538.3408203125 L -2167.451171875 -5533.59033203125 L -2167.866943359375 -5532.96630859375 L -2168.283203125 -5533.59033203125 L -2171.45263671875 -5538.3408203125 C -2171.5458984375 -5538.48095703125 -2171.700927734375 -5538.564453125 -2171.867919921875 -5538.564453125 C -2172.034423828125 -5538.564453125 -2172.18896484375 -5538.4814453125 -2172.281005859375 -5538.34228515625 L -2175.450439453125 -5533.59033203125 L -2175.866455078125 -5532.966796875 L -2176.282470703125 -5533.59033203125 L -2179.451171875 -5538.3408203125 C -2179.54443359375 -5538.48095703125 -2179.69970703125 -5538.564453125 -2179.8671875 -5538.564453125 C -2180.034912109375 -5538.564453125 -2180.190185546875 -5538.48095703125 -2180.282958984375 -5538.34130859375 L -2183.449462890625 -5533.59033203125 L -2183.865234375 -5532.966796875 L -2184.28125 -5533.58984375 L -2187.4521484375 -5538.34033203125 C -2187.54541015625 -5538.4814453125 -2187.7001953125 -5538.564453125 -2187.8671875 -5538.564453125 C -2188.03466796875 -5538.564453125 -2188.18994140625 -5538.48095703125 -2188.28271484375 -5538.34130859375 L -2191.450927734375 -5533.59033203125 L -2191.866943359375 -5532.966796875 L -2192.282958984375 -5533.59033203125 L -2195.452392578125 -5538.3408203125 C -2195.54541015625 -5538.4814453125 -2195.7001953125 -5538.564453125 -2195.867431640625 -5538.564453125 C -2196.035400390625 -5538.564453125 -2196.19140625 -5538.48095703125 -2196.28466796875 -5538.3408203125 L -2199.45068359375 -5533.59033203125 L -2199.866455078125 -5532.96630859375 L -2200.28271484375 -5533.59033203125 L -2203.4521484375 -5538.3408203125 C -2203.54541015625 -5538.48095703125 -2203.70068359375 -5538.564453125 -2203.86767578125 -5538.564453125 C -2204.034912109375 -5538.564453125 -2204.18994140625 -5538.48095703125 -2204.28271484375 -5538.34130859375 L -2207.45166015625 -5533.59033203125 L -2207.86767578125 -5532.966796875 L -2208.28369140625 -5533.59033203125 L -2211.4521484375 -5538.3408203125 C -2211.54541015625 -5538.48095703125 -2211.700927734375 -5538.564453125 -2211.8681640625 -5538.564453125 C -2212.03564453125 -5538.564453125 -2212.191162109375 -5538.48095703125 -2212.2841796875 -5538.34130859375 L -2215.45068359375 -5533.59033203125 L -2215.86669921875 -5532.96630859375 L -2216.28271484375 -5533.59033203125 L -2219.45068359375 -5538.3408203125 C -2219.5439453125 -5538.48095703125 -2219.69921875 -5538.564453125 -2219.86669921875 -5538.564453125 C -2220.0341796875 -5538.564453125 -2220.189697265625 -5538.48095703125 -2220.28271484375 -5538.34130859375 L -2223.21435546875 -5533.94384765625 L -2223.582763671875 -5533.39111328125 L -2224.011962890625 -5533.89794921875 C -2224.2412109375 -5534.1689453125 -2224.367431640625 -5534.51318359375 -2224.367431640625 -5534.86767578125 C -2224.367431640625 -5541.13134765625 -2223.6435546875 -5544.7646484375 -2223.036376953125 -5546.7099609375 C -2222.3994140625 -5548.75 -2221.556640625 -5550.017578125 -2220.8369140625 -5550.017578125 L -1956.865844726563 -5549.3671875 C -1956.567993164063 -5549.3671875 -1956.351196289063 -5549.26806640625 -1956.222412109375 -5549.0732421875 C -1956.02783203125 -5548.7783203125 -1956.156372070313 -5548.4765625 -1956.250366210938 -5548.25634765625 C -1956.305297851563 -5548.1279296875 -1956.367065429688 -5547.9833984375 -1956.367065429688 -5547.8671875 L -1956.367065429688 -5538.3671875 L -1956.367065429688 -5538.2158203125 L -1956.451049804688 -5538.08984375 L -1959.44970703125 -5533.5908203125 L -1959.865478515625 -5532.966796875 L -1960.281616210938 -5533.5908203125 L -1963.451416015625 -5538.3408203125 C -1963.544799804688 -5538.48095703125 -1963.7001953125 -5538.564453125 -1963.867553710938 -5538.564453125 C -1964.034545898438 -5538.564453125 -1964.189331054688 -5538.4814453125 -1964.28173828125 -5538.341796875 L -1967.443359375 -5533.6015625 L -1967.866943359375 -5532.884765625 Z" stroke="none"/>
      <path d="M -1967.867797851563 -5533.8662109375 L -1967.866943359375 -5533.86767578125 L -1964.698486328125 -5538.6181640625 C -1964.513427734375 -5538.8974609375 -1964.202758789063 -5539.064453125 -1963.867553710938 -5539.064453125 C -1963.532348632813 -5539.064453125 -1963.221313476563 -5538.8974609375 -1963.035522460938 -5538.6181640625 L -1959.86572265625 -5533.8681640625 L -1956.867065429688 -5538.3671875 L -1956.867065429688 -5547.8671875 C -1956.867065429688 -5548.08544921875 -1956.780395507813 -5548.28857421875 -1956.710571289063 -5548.45166015625 C -1956.64501953125 -5548.60546875 -1956.593139648438 -5548.72705078125 -1956.639892578125 -5548.7978515625 C -1956.671142578125 -5548.84521484375 -1956.743286132813 -5548.8671875 -1956.867065429688 -5548.8671875 L -2220.8369140625 -5549.517578125 C -2221.09765625 -5549.517578125 -2221.861572265625 -5548.794921875 -2222.55908203125 -5546.56103515625 C -2223.156005859375 -5544.64892578125 -2223.867431640625 -5541.068359375 -2223.867431640625 -5534.86767578125 C -2223.867431640625 -5534.6318359375 -2223.78369140625 -5534.40234375 -2223.63037109375 -5534.22119140625 L -2220.698974609375 -5538.6181640625 C -2220.51318359375 -5538.8974609375 -2220.2021484375 -5539.064453125 -2219.86669921875 -5539.064453125 C -2219.53125 -5539.064453125 -2219.22021484375 -5538.8974609375 -2219.03466796875 -5538.6181640625 L -2215.86669921875 -5533.86767578125 L -2212.700439453125 -5538.6181640625 C -2212.5146484375 -5538.8974609375 -2212.20361328125 -5539.064453125 -2211.8681640625 -5539.064453125 C -2211.53271484375 -5539.064453125 -2211.221923828125 -5538.8974609375 -2211.0361328125 -5538.6181640625 L -2207.86767578125 -5533.86767578125 L -2204.69921875 -5538.6181640625 C -2204.513671875 -5538.8974609375 -2204.20263671875 -5539.064453125 -2203.86767578125 -5539.064453125 C -2203.532958984375 -5539.064453125 -2203.221923828125 -5538.8974609375 -2203.0361328125 -5538.6181640625 L -2199.86669921875 -5533.86767578125 L -2196.70068359375 -5538.6181640625 C -2196.514404296875 -5538.8974609375 -2196.202880859375 -5539.064453125 -2195.867431640625 -5539.064453125 C -2195.531982421875 -5539.064453125 -2195.22119140625 -5538.8974609375 -2195.036376953125 -5538.6181640625 L -2191.866943359375 -5533.86767578125 L -2188.69921875 -5538.6181640625 C -2188.513671875 -5538.8974609375 -2188.20263671875 -5539.064453125 -2187.8671875 -5539.064453125 C -2187.531982421875 -5539.064453125 -2187.22119140625 -5538.8974609375 -2187.036376953125 -5538.6181640625 L -2183.865478515625 -5533.86767578125 L -2180.699462890625 -5538.6181640625 C -2180.513916015625 -5538.8974609375 -2180.20263671875 -5539.064453125 -2179.8671875 -5539.064453125 C -2179.53173828125 -5539.064453125 -2179.220703125 -5538.8974609375 -2179.03515625 -5538.6181640625 L -2175.866455078125 -5533.86767578125 L -2172.697998046875 -5538.6181640625 C -2172.51318359375 -5538.8974609375 -2172.202880859375 -5539.064453125 -2171.867919921875 -5539.064453125 C -2171.532958984375 -5539.064453125 -2171.22216796875 -5538.8974609375 -2171.03662109375 -5538.6181640625 L -2167.8671875 -5533.86767578125 L -2164.700927734375 -5538.6181640625 C -2164.5146484375 -5538.8974609375 -2164.203125 -5539.064453125 -2163.86767578125 -5539.064453125 C -2163.5322265625 -5539.064453125 -2163.221435546875 -5538.8974609375 -2163.03662109375 -5538.6181640625 L -2159.8681640625 -5533.86767578125 L -2156.69970703125 -5538.6181640625 C -2156.513916015625 -5538.8974609375 -2156.202880859375 -5539.064453125 -2155.86767578125 -5539.064453125 C -2155.532470703125 -5539.064453125 -2155.221923828125 -5538.8974609375 -2155.03662109375 -5538.6181640625 L -2151.8671875 -5533.86767578125 L -2148.69970703125 -5538.6181640625 C -2148.513916015625 -5538.8974609375 -2148.202880859375 -5539.064453125 -2147.867431640625 -5539.064453125 C -2147.531982421875 -5539.064453125 -2147.220947265625 -5538.8974609375 -2147.035400390625 -5538.6181640625 L -2143.866943359375 -5533.86767578125 L -2140.6982421875 -5538.6181640625 C -2140.51318359375 -5538.8974609375 -2140.20263671875 -5539.064453125 -2139.867431640625 -5539.064453125 C -2139.531982421875 -5539.064453125 -2139.220947265625 -5538.8974609375 -2139.035400390625 -5538.6181640625 L -2135.865966796875 -5533.86767578125 L -2132.69970703125 -5538.6181640625 C -2132.513671875 -5538.8974609375 -2132.202392578125 -5539.064453125 -2131.8671875 -5539.064453125 C -2131.531982421875 -5539.064453125 -2131.220947265625 -5538.8974609375 -2131.035400390625 -5538.6181640625 L -2127.866943359375 -5533.86767578125 L -2124.699951171875 -5538.6181640625 C -2124.514404296875 -5538.8974609375 -2124.203369140625 -5539.064453125 -2123.867919921875 -5539.064453125 C -2123.53271484375 -5539.064453125 -2123.221923828125 -5538.8974609375 -2123.036865234375 -5538.6181640625 L -2119.867431640625 -5533.86767578125 L -2116.699951171875 -5538.6181640625 C -2116.514404296875 -5538.8974609375 -2116.203125 -5539.064453125 -2115.86767578125 -5539.064453125 C -2115.5322265625 -5539.064453125 -2115.22119140625 -5538.8974609375 -2115.03564453125 -5538.6181640625 L -2111.8662109375 -5533.86767578125 L -2108.69873046875 -5538.6181640625 C -2108.513671875 -5538.8974609375 -2108.202880859375 -5539.064453125 -2107.86767578125 -5539.064453125 C -2107.5322265625 -5539.064453125 -2107.22119140625 -5538.8974609375 -2107.03564453125 -5538.6181640625 L -2103.8662109375 -5533.86767578125 L -2100.7001953125 -5538.6181640625 C -2100.514404296875 -5538.8974609375 -2100.203125 -5539.064453125 -2099.867919921875 -5539.064453125 C -2099.53271484375 -5539.064453125 -2099.221435546875 -5538.8974609375 -2099.03564453125 -5538.6181640625 L -2095.8671875 -5533.86767578125 L -2092.69873046875 -5538.6181640625 C -2092.51318359375 -5538.8974609375 -2092.2021484375 -5539.064453125 -2091.86669921875 -5539.064453125 C -2091.53125 -5539.064453125 -2091.220703125 -5538.8974609375 -2091.035888671875 -5538.6181640625 L -2087.866455078125 -5533.86767578125 L -2084.69873046875 -5538.6181640625 C -2084.51318359375 -5538.8974609375 -2084.201904296875 -5539.064453125 -2083.866455078125 -5539.064453125 C -2083.531005859375 -5539.064453125 -2083.219970703125 -5538.8974609375 -2083.034423828125 -5538.6181640625 L -2079.866455078125 -5533.86767578125 L -2076.698974609375 -5538.6181640625 C -2076.513916015625 -5538.8974609375 -2076.203125 -5539.064453125 -2075.867919921875 -5539.064453125 C -2075.532470703125 -5539.064453125 -2075.221435546875 -5538.8974609375 -2075.035888671875 -5538.6181640625 L -2071.866455078125 -5533.86767578125 L -2068.700439453125 -5538.6181640625 C -2068.5146484375 -5538.8974609375 -2068.20361328125 -5539.064453125 -2067.8681640625 -5539.064453125 C -2067.53271484375 -5539.064453125 -2067.221923828125 -5538.8974609375 -2067.0361328125 -5538.6181640625 L -2063.867431640625 -5533.86767578125 L -2060.698974609375 -5538.6181640625 C -2060.51318359375 -5538.8974609375 -2060.202392578125 -5539.064453125 -2059.867431640625 -5539.064453125 C -2059.532470703125 -5539.064453125 -2059.221923828125 -5538.8974609375 -2059.0361328125 -5538.6181640625 L -2055.86669921875 -5533.86767578125 L -2052.69921875 -5538.6181640625 C -2052.51318359375 -5538.8974609375 -2052.2021484375 -5539.064453125 -2051.866943359375 -5539.064453125 C -2051.531494140625 -5539.064453125 -2051.220458984375 -5538.8974609375 -2051.034912109375 -5538.6181640625 L -2047.866821289063 -5533.86767578125 L -2044.69921875 -5538.6181640625 C -2044.513549804688 -5538.8974609375 -2044.202514648438 -5539.064453125 -2043.867065429688 -5539.064453125 C -2043.531616210938 -5539.064453125 -2043.220581054688 -5538.8974609375 -2043.034912109375 -5538.6181640625 L -2039.865478515625 -5533.86767578125 L -2036.69921875 -5538.6181640625 C -2036.51416015625 -5538.8974609375 -2036.203369140625 -5539.064453125 -2035.867797851563 -5539.064453125 C -2035.5322265625 -5539.064453125 -2035.221435546875 -5538.8974609375 -2035.036376953125 -5538.6181640625 L -2031.867797851563 -5533.86767578125 L -2028.699340820313 -5538.6181640625 C -2028.513671875 -5538.8974609375 -2028.202758789063 -5539.064453125 -2027.867797851563 -5539.064453125 C -2027.532836914063 -5539.064453125 -2027.222045898438 -5538.8974609375 -2027.036376953125 -5538.6181640625 L -2023.866943359375 -5533.86767578125 L -2020.699462890625 -5538.6181640625 C -2020.513671875 -5538.8974609375 -2020.20263671875 -5539.064453125 -2019.867431640625 -5539.064453125 C -2019.5322265625 -5539.064453125 -2019.221557617188 -5538.8974609375 -2019.036499023438 -5538.6181640625 L -2015.867919921875 -5533.86767578125 L -2012.699462890625 -5538.6181640625 C -2012.513793945313 -5538.8974609375 -2012.202758789063 -5539.064453125 -2011.867309570313 -5539.064453125 C -2011.531860351563 -5539.064453125 -2011.220825195313 -5538.8974609375 -2011.03515625 -5538.6181640625 L -2007.86572265625 -5533.86767578125 L -2004.699584960938 -5538.6181640625 C -2004.513793945313 -5538.8974609375 -2004.20263671875 -5539.064453125 -2003.867309570313 -5539.064453125 C -2003.531982421875 -5539.064453125 -2003.220947265625 -5538.8974609375 -2003.03515625 -5538.6181640625 L -1999.86669921875 -5533.86767578125 L -1996.6982421875 -5538.6181640625 C -1996.51318359375 -5538.8974609375 -1996.202514648438 -5539.064453125 -1995.867309570313 -5539.064453125 C -1995.531982421875 -5539.064453125 -1995.220947265625 -5538.8974609375 -1995.035278320313 -5538.6181640625 L -1991.865844726563 -5533.86767578125 L -1988.701049804688 -5538.6181640625 C -1988.5146484375 -5538.8974609375 -1988.203247070313 -5539.064453125 -1987.867919921875 -5539.064453125 C -1987.532592773438 -5539.064453125 -1987.221801757813 -5538.8974609375 -1987.036743164063 -5538.6181640625 L -1983.868286132813 -5533.86767578125 L -1980.69970703125 -5538.6181640625 C -1980.514038085938 -5538.8974609375 -1980.203002929688 -5539.064453125 -1979.86767578125 -5539.064453125 C -1979.532470703125 -5539.064453125 -1979.221923828125 -5538.8974609375 -1979.036865234375 -5538.6181640625 L -1975.867431640625 -5533.86767578125 L -1972.699829101563 -5538.6181640625 C -1972.51416015625 -5538.8974609375 -1972.203125 -5539.064453125 -1971.86767578125 -5539.064453125 C -1971.5322265625 -5539.064453125 -1971.22119140625 -5538.8974609375 -1971.035522460938 -5538.6181640625 L -1967.86865234375 -5533.86767578125 L -1967.867797851563 -5533.8662109375 M -1967.867309570313 -5532.86669921875 C -1968.207275390625 -5532.86669921875 -1968.523193359375 -5533.03857421875 -1968.70703125 -5533.322265625 L -1971.867553710938 -5538.0634765625 L -1975.035400390625 -5533.31298828125 C -1975.220825195313 -5533.03466796875 -1975.533081054688 -5532.86767578125 -1975.867309570313 -5532.86767578125 C -1976.201538085938 -5532.86767578125 -1976.513793945313 -5533.03466796875 -1976.699340820313 -5533.3125 L -1979.868774414063 -5538.06298828125 L -1983.036376953125 -5533.31298828125 C -1983.221801757813 -5533.03466796875 -1983.534057617188 -5532.86767578125 -1983.868286132813 -5532.86767578125 C -1984.20263671875 -5532.86767578125 -1984.514770507813 -5533.03466796875 -1984.7001953125 -5533.31298828125 L -1987.86865234375 -5538.0634765625 L -1991.033569335938 -5533.31298828125 C -1991.218994140625 -5533.03515625 -1991.531127929688 -5532.86767578125 -1991.865478515625 -5532.86767578125 C -1992.199829101563 -5532.86767578125 -1992.512084960938 -5533.03466796875 -1992.697631835938 -5533.3125 L -1995.867065429688 -5538.06298828125 L -1999.034790039063 -5533.31298828125 C -1999.22021484375 -5533.03466796875 -1999.532470703125 -5532.86767578125 -1999.86669921875 -5532.86767578125 C -2000.200927734375 -5532.86767578125 -2000.51318359375 -5533.03466796875 -2000.698608398438 -5533.31298828125 L -2003.867065429688 -5538.0634765625 L -2007.033569335938 -5533.31298828125 C -2007.218994140625 -5533.03466796875 -2007.531127929688 -5532.86767578125 -2007.865478515625 -5532.86767578125 C -2008.199829101563 -5532.86767578125 -2008.512084960938 -5533.03466796875 -2008.697631835938 -5533.3125 L -2011.867065429688 -5538.06298828125 L -2015.036010742188 -5533.31298828125 C -2015.221435546875 -5533.03466796875 -2015.53369140625 -5532.86767578125 -2015.867919921875 -5532.86767578125 C -2016.2021484375 -5532.86767578125 -2016.514404296875 -5533.03466796875 -2016.699829101563 -5533.31298828125 L -2019.868408203125 -5538.0634765625 L -2023.034912109375 -5533.31298828125 C -2023.220336914063 -5533.03466796875 -2023.532470703125 -5532.86767578125 -2023.866821289063 -5532.86767578125 C -2024.201049804688 -5532.86767578125 -2024.513305664063 -5533.03466796875 -2024.69873046875 -5533.3125 L -2027.868286132813 -5538.06298828125 L -2031.035888671875 -5533.31298828125 C -2031.221313476563 -5533.03466796875 -2031.533447265625 -5532.86767578125 -2031.867797851563 -5532.86767578125 C -2032.202026367188 -5532.86767578125 -2032.514282226563 -5533.03466796875 -2032.69970703125 -5533.31298828125 L -2035.868286132813 -5538.0634765625 L -2039.033447265625 -5533.31298828125 C -2039.21875 -5533.03466796875 -2039.531005859375 -5532.86767578125 -2039.865234375 -5532.86767578125 C -2040.199584960938 -5532.86767578125 -2040.511840820313 -5533.03466796875 -2040.697387695313 -5533.3125 L -2043.866821289063 -5538.06298828125 L -2047.034790039063 -5533.31298828125 C -2047.220336914063 -5533.03466796875 -2047.532470703125 -5532.86767578125 -2047.866821289063 -5532.86767578125 C -2048.201171875 -5532.86767578125 -2048.51318359375 -5533.03466796875 -2048.69873046875 -5533.31298828125 L -2051.866943359375 -5538.0634765625 L -2055.03466796875 -5533.31298828125 C -2055.22021484375 -5533.03466796875 -2055.5322265625 -5532.86767578125 -2055.866455078125 -5532.86767578125 C -2056.200927734375 -5532.86767578125 -2056.512939453125 -5533.03466796875 -2056.698486328125 -5533.3125 L -2059.867919921875 -5538.06298828125 L -2063.035400390625 -5533.31298828125 C -2063.220947265625 -5533.03466796875 -2063.533203125 -5532.86767578125 -2063.867431640625 -5532.86767578125 C -2064.20166015625 -5532.86767578125 -2064.513916015625 -5533.03466796875 -2064.69921875 -5533.31298828125 L -2067.867919921875 -5538.0634765625 L -2071.034423828125 -5533.31298828125 C -2071.2197265625 -5533.03466796875 -2071.531982421875 -5532.86767578125 -2071.8662109375 -5532.86767578125 C -2072.200439453125 -5532.86767578125 -2072.5126953125 -5533.03466796875 -2072.6982421875 -5533.3125 L -2075.86767578125 -5538.06298828125 L -2079.034423828125 -5533.31298828125 C -2079.219970703125 -5533.03466796875 -2079.5322265625 -5532.86767578125 -2079.866455078125 -5532.86767578125 C -2080.20068359375 -5532.86767578125 -2080.512939453125 -5533.03466796875 -2080.698486328125 -5533.31298828125 L -2083.866455078125 -5538.0634765625 L -2087.034423828125 -5533.31298828125 C -2087.219970703125 -5533.03466796875 -2087.531982421875 -5532.86767578125 -2087.8662109375 -5532.86767578125 C -2088.20068359375 -5532.86767578125 -2088.5126953125 -5533.03466796875 -2088.6982421875 -5533.3125 L -2091.86767578125 -5538.06298828125 L -2095.03515625 -5533.31298828125 C -2095.220703125 -5533.03466796875 -2095.532958984375 -5532.86767578125 -2095.8671875 -5532.86767578125 C -2096.201416015625 -5532.86767578125 -2096.513671875 -5533.03466796875 -2096.69921875 -5533.31298828125 L -2099.86767578125 -5538.0634765625 L -2103.0341796875 -5533.31298828125 C -2103.219482421875 -5533.03466796875 -2103.53173828125 -5532.86767578125 -2103.865966796875 -5532.86767578125 C -2104.2001953125 -5532.86767578125 -2104.512451171875 -5533.03466796875 -2104.697998046875 -5533.3125 L -2107.867431640625 -5538.06298828125 L -2111.0341796875 -5533.31298828125 C -2111.2197265625 -5533.03466796875 -2111.53173828125 -5532.86767578125 -2111.8662109375 -5532.86767578125 C -2112.200439453125 -5532.86767578125 -2112.512451171875 -5533.03466796875 -2112.697998046875 -5533.3125 L -2115.867431640625 -5538.06298828125 L -2119.035400390625 -5533.31298828125 C -2119.220947265625 -5533.03466796875 -2119.532958984375 -5532.86767578125 -2119.8671875 -5532.86767578125 C -2120.20166015625 -5532.86767578125 -2120.513671875 -5533.03466796875 -2120.69921875 -5533.3125 L -2123.86865234375 -5538.06298828125 L -2127.034912109375 -5533.31298828125 C -2127.22021484375 -5533.03466796875 -2127.532470703125 -5532.86767578125 -2127.866943359375 -5532.86767578125 C -2128.201171875 -5532.86767578125 -2128.513427734375 -5533.03466796875 -2128.698974609375 -5533.31298828125 L -2131.867431640625 -5538.0634765625 L -2135.033935546875 -5533.31298828125 C -2135.21923828125 -5533.03466796875 -2135.531494140625 -5532.86767578125 -2135.86572265625 -5532.86767578125 C -2136.199951171875 -5532.86767578125 -2136.51220703125 -5533.03466796875 -2136.69775390625 -5533.3125 L -2139.8671875 -5538.06298828125 L -2143.034912109375 -5533.31298828125 C -2143.220458984375 -5533.03466796875 -2143.53271484375 -5532.86767578125 -2143.866943359375 -5532.86767578125 C -2144.201171875 -5532.86767578125 -2144.513427734375 -5533.03466796875 -2144.698974609375 -5533.31298828125 L -2147.867431640625 -5538.0634765625 L -2151.03515625 -5533.31298828125 C -2151.220703125 -5533.03466796875 -2151.53271484375 -5532.86767578125 -2151.866943359375 -5532.86767578125 C -2152.201416015625 -5532.86767578125 -2152.513427734375 -5533.03466796875 -2152.698974609375 -5533.3125 L -2155.868408203125 -5538.06298828125 L -2159.0361328125 -5533.31298828125 C -2159.2216796875 -5533.03466796875 -2159.533935546875 -5532.86767578125 -2159.8681640625 -5532.86767578125 C -2160.202392578125 -5532.86767578125 -2160.5146484375 -5533.03466796875 -2160.7001953125 -5533.31298828125 L -2163.86865234375 -5538.0634765625 L -2167.03515625 -5533.31298828125 C -2167.220458984375 -5533.03466796875 -2167.53271484375 -5532.86767578125 -2167.866943359375 -5532.86767578125 C -2168.201171875 -5532.86767578125 -2168.513427734375 -5533.03466796875 -2168.698974609375 -5533.3125 L -2171.8671875 -5538.0615234375 L -2175.034423828125 -5533.31298828125 C -2175.219970703125 -5533.03466796875 -2175.5322265625 -5532.86767578125 -2175.866455078125 -5532.86767578125 C -2176.20068359375 -5532.86767578125 -2176.512939453125 -5533.03466796875 -2176.6982421875 -5533.31298828125 L -2179.866943359375 -5538.0634765625 L -2183.033203125 -5533.31298828125 C -2183.21875 -5533.03515625 -2183.53076171875 -5532.86767578125 -2183.864990234375 -5532.86767578125 C -2184.199462890625 -5532.86767578125 -2184.51171875 -5533.03466796875 -2184.697265625 -5533.3125 L -2187.8681640625 -5538.06298828125 L -2191.034912109375 -5533.31298828125 C -2191.220458984375 -5533.03466796875 -2191.532470703125 -5532.86767578125 -2191.86669921875 -5532.86767578125 C -2192.201171875 -5532.86767578125 -2192.51318359375 -5533.03466796875 -2192.69873046875 -5533.3125 L -2195.8681640625 -5538.06298828125 L -2199.03466796875 -5533.31298828125 C -2199.219970703125 -5533.03466796875 -2199.5322265625 -5532.86767578125 -2199.866455078125 -5532.86767578125 C -2200.20068359375 -5532.86767578125 -2200.512939453125 -5533.03466796875 -2200.698486328125 -5533.3125 L -2203.867919921875 -5538.06298828125 L -2207.03564453125 -5533.31298828125 C -2207.22119140625 -5533.03466796875 -2207.533447265625 -5532.86767578125 -2207.86767578125 -5532.86767578125 C -2208.201904296875 -5532.86767578125 -2208.51416015625 -5533.03466796875 -2208.69970703125 -5533.31298828125 L -2211.8681640625 -5538.0634765625 L -2215.03466796875 -5533.31298828125 C -2215.219970703125 -5533.03466796875 -2215.5322265625 -5532.86767578125 -2215.866455078125 -5532.86767578125 C -2216.200927734375 -5532.86767578125 -2216.51318359375 -5533.03466796875 -2216.69873046875 -5533.31298828125 L -2219.86669921875 -5538.0634765625 L -2222.79833984375 -5533.66650390625 C -2222.97265625 -5533.4052734375 -2223.259521484375 -5533.24072265625 -2223.5732421875 -5533.22265625 C -2223.59228515625 -5533.2216796875 -2223.611328125 -5533.22119140625 -2223.63037109375 -5533.22119140625 C -2223.923583984375 -5533.22119140625 -2224.202880859375 -5533.35009765625 -2224.3935546875 -5533.5751953125 C -2224.69921875 -5533.93603515625 -2224.867431640625 -5534.39501953125 -2224.867431640625 -5534.86767578125 C -2224.867431640625 -5541.1943359375 -2224.13134765625 -5544.880859375 -2223.513671875 -5546.85888671875 C -2223.0869140625 -5548.2255859375 -2222.171875 -5550.517578125 -2220.8369140625 -5550.517578125 L -1956.864624023438 -5549.8671875 C -1956.272094726563 -5549.8671875 -1955.961181640625 -5549.5849609375 -1955.805053710938 -5549.34814453125 C -1955.46240234375 -5548.82958984375 -1955.683959960938 -5548.31005859375 -1955.790405273438 -5548.06005859375 C -1955.81689453125 -5547.99853515625 -1955.859130859375 -5547.8994140625 -1955.867065429688 -5547.857421875 L -1955.867065429688 -5538.3671875 C -1955.867065429688 -5538.169921875 -1955.925537109375 -5537.97705078125 -1956.034912109375 -5537.8125 L -1959.033569335938 -5533.3134765625 C -1959.218994140625 -5533.03515625 -1959.531127929688 -5532.8681640625 -1959.865478515625 -5532.8681640625 C -1960.19970703125 -5532.8681640625 -1960.511962890625 -5533.03515625 -1960.697509765625 -5533.31298828125 L -1963.867309570313 -5538.06298828125 L -1967.031982421875 -5533.3173828125 C -1967.216430664063 -5533.03759765625 -1967.530151367188 -5532.86669921875 -1967.867309570313 -5532.86669921875 Z" stroke="none" fill="#e5e5e5"/>
    </g>
    <path id="Path_574" data-name="Path 574" d="M0-10H268a1,1,0,0,1,1,1V86H8C3.582,86,1.729,83.916.848,78.547a360.909,360.909,0,0,1-3.4-46.511C-2.55,12.536,0-10,0-10Z" transform="translate(66 346)" fill="#c1c1c1"/>
    <path id="Rectangle_877" data-name="Rectangle 877" d="M0,0H136a0,0,0,0,1,0,0V71a3,3,0,0,1-3,3H3a3,3,0,0,1-3-3V0A0,0,0,0,1,0,0Z" transform="translate(85 336)" fill="#fff"/>
    <g id="Subtraction_63" data-name="Subtraction 63" transform="translate(2318 5884)" fill="#858585" stroke-linejoin="round">
      <path d="M -2217.50048828125 -5491.5 L -2217.50048828125 -5547.50048828125 L -2214.500244140625 -5547.50048828125 L -2214.500244140625 -5491.5009765625 L -2217.50048828125 -5491.5 Z M -2162.50048828125 -5491.5 L -2162.50048828125 -5547.50048828125 L -2160.500244140625 -5547.50048828125 L -2160.500244140625 -5491.5009765625 L -2162.50048828125 -5491.5 Z M -2167.49951171875 -5491.5 L -2167.49951171875 -5547.50048828125 L -2165.50048828125 -5547.50048828125 L -2165.50048828125 -5491.5009765625 L -2167.49951171875 -5491.5 Z M -2109.50048828125 -5491.5 L -2109.50048828125 -5547.50048828125 L -2108.500244140625 -5547.50048828125 L -2108.4990234375 -5491.50048828125 L -2109.50048828125 -5491.5 Z M -2112.499267578125 -5491.5 L -2112.499267578125 -5547.50048828125 L -2111.50048828125 -5547.50048828125 L -2111.50048828125 -5491.50048828125 L -2112.499267578125 -5491.5 Z M -2140.500244140625 -5497.06591796875 L -2140.500244140625 -5547.50048828125 L -2135.499755859375 -5547.50048828125 L -2135.499755859375 -5497.06689453125 L -2140.500244140625 -5497.06591796875 Z M -2181.50048828125 -5497.06591796875 L -2181.50048828125 -5547.50048828125 L -2176.5 -5547.50048828125 L -2176.5 -5497.06689453125 L -2181.50048828125 -5497.06591796875 Z M -2118.499755859375 -5497.06591796875 L -2118.499755859375 -5547.50048828125 L -2115.49951171875 -5547.50048828125 L -2115.49951171875 -5497.06689453125 L -2118.499755859375 -5497.06591796875 Z M -2146.50048828125 -5497.06591796875 L -2146.50048828125 -5547.50048828125 L -2143.500244140625 -5547.50048828125 L -2143.500244140625 -5497.06689453125 L -2146.50048828125 -5497.06591796875 Z M -2195.500244140625 -5497.06591796875 L -2195.500244140625 -5547.50048828125 L -2192.5 -5547.50048828125 L -2192.5 -5497.06689453125 L -2195.500244140625 -5497.06591796875 Z M -2133.49951171875 -5497.06591796875 L -2133.49951171875 -5547.50048828125 L -2130.500732421875 -5547.50048828125 L -2130.500732421875 -5497.06689453125 L -2133.49951171875 -5497.06591796875 Z M -2157.5 -5497.06591796875 L -2157.5 -5547.50048828125 L -2154.501220703125 -5547.50048828125 L -2154.501220703125 -5497.06689453125 L -2157.5 -5497.06591796875 Z M -2211.5 -5497.06591796875 L -2211.5 -5547.50048828125 L -2208.501220703125 -5547.50048828125 L -2208.501220703125 -5497.06689453125 L -2211.5 -5497.06591796875 Z M -2200.500732421875 -5497.06591796875 L -2200.500732421875 -5547.50048828125 L -2198.4990234375 -5547.50048828125 L -2198.4990234375 -5497.06689453125 L -2200.500732421875 -5497.06591796875 Z M -2186.49951171875 -5497.06591796875 L -2186.49951171875 -5547.50048828125 L -2184.499267578125 -5547.50048828125 L -2184.499267578125 -5497.06689453125 L -2186.49951171875 -5497.06591796875 Z M -2204.49951171875 -5497.06591796875 L -2204.49951171875 -5547.50048828125 L -2202.499267578125 -5547.50048828125 L -2202.499267578125 -5497.06689453125 L -2204.49951171875 -5497.06591796875 Z M -2123.500244140625 -5497.06591796875 L -2123.500244140625 -5547.50048828125 L -2121.5 -5547.50048828125 L -2121.5 -5497.06689453125 L -2123.500244140625 -5497.06591796875 Z M -2127.50048828125 -5497.06591796875 L -2127.50048828125 -5547.50048828125 L -2125.500244140625 -5547.50048828125 L -2125.500244140625 -5497.06689453125 L -2127.50048828125 -5497.06591796875 Z M -2151.49951171875 -5497.06591796875 L -2151.49951171875 -5547.50048828125 L -2149.499267578125 -5547.50048828125 L -2149.499267578125 -5497.06689453125 L -2151.49951171875 -5497.06591796875 Z M -2173.5 -5497.06591796875 L -2173.5 -5547.50048828125 L -2171.499755859375 -5547.50048828125 L -2171.499755859375 -5497.06689453125 L -2173.5 -5497.06591796875 Z M -2190.499755859375 -5497.06591796875 L -2190.499755859375 -5547.50048828125 L -2188.49951171875 -5547.50048828125 L -2188.49951171875 -5497.06689453125 L -2190.499755859375 -5497.06591796875 Z" stroke="none"/>
      <path d="M -2217.00048828125 -5492 L -2215.000244140625 -5492.00048828125 L -2215.000244140625 -5547.00048828125 L -2217.00048828125 -5547.00048828125 L -2217.00048828125 -5492 M -2162.00048828125 -5492.00048828125 L -2161.000244140625 -5492.00048828125 L -2161.000244140625 -5547.00048828125 L -2162.00048828125 -5547.00048828125 L -2162.00048828125 -5492.00048828125 M -2166.99951171875 -5492.00048828125 L -2166.00048828125 -5492.00048828125 L -2166.00048828125 -5547.00048828125 L -2166.99951171875 -5547.00048828125 L -2166.99951171875 -5492.00048828125 M -2109.00048828125 -5492.00048828125 L -2108.9990234375 -5492.00048828125 L -2109.000244140625 -5547.00048828125 L -2109.00048828125 -5547.00048828125 L -2109.00048828125 -5492.00048828125 M -2140.000244140625 -5497.56591796875 L -2135.999755859375 -5497.56689453125 L -2135.999755859375 -5547.00048828125 L -2140.000244140625 -5547.00048828125 L -2140.000244140625 -5497.56591796875 M -2181.00048828125 -5497.56591796875 L -2177 -5497.56689453125 L -2177 -5547.00048828125 L -2181.00048828125 -5547.00048828125 L -2181.00048828125 -5497.56591796875 M -2117.999755859375 -5497.56591796875 L -2115.99951171875 -5497.56689453125 L -2115.99951171875 -5547.00048828125 L -2117.999755859375 -5547.00048828125 L -2117.999755859375 -5497.56591796875 M -2146.00048828125 -5497.56591796875 L -2144.000244140625 -5497.56689453125 L -2144.000244140625 -5547.00048828125 L -2146.00048828125 -5547.00048828125 L -2146.00048828125 -5497.56591796875 M -2195.000244140625 -5497.56591796875 L -2193 -5497.56689453125 L -2193 -5547.00048828125 L -2195.000244140625 -5547.00048828125 L -2195.000244140625 -5497.56591796875 M -2132.99951171875 -5497.56591796875 L -2131.000732421875 -5497.56689453125 L -2131.000732421875 -5547.00048828125 L -2132.99951171875 -5547.00048828125 L -2132.99951171875 -5497.56591796875 M -2157 -5497.56591796875 L -2155.001220703125 -5497.56689453125 L -2155.001220703125 -5547.00048828125 L -2157 -5547.00048828125 L -2157 -5497.56591796875 M -2211 -5497.56591796875 L -2209.001220703125 -5497.56689453125 L -2209.001220703125 -5547.00048828125 L -2211 -5547.00048828125 L -2211 -5497.56591796875 M -2200.000732421875 -5497.56640625 L -2198.9990234375 -5497.56640625 L -2198.9990234375 -5547.00048828125 L -2200.000732421875 -5547.00048828125 L -2200.000732421875 -5497.56640625 M -2185.99951171875 -5497.56640625 L -2184.999267578125 -5497.56640625 L -2184.999267578125 -5547.00048828125 L -2185.99951171875 -5547.00048828125 L -2185.99951171875 -5497.56640625 M -2203.99951171875 -5497.56640625 L -2202.999267578125 -5497.56640625 L -2202.999267578125 -5547.00048828125 L -2203.99951171875 -5547.00048828125 L -2203.99951171875 -5497.56640625 M -2123.000244140625 -5497.56640625 L -2122 -5497.56640625 L -2122 -5547.00048828125 L -2123.000244140625 -5547.00048828125 L -2123.000244140625 -5497.56640625 M -2127.00048828125 -5497.56640625 L -2126.000244140625 -5497.56640625 L -2126.000244140625 -5547.00048828125 L -2127.00048828125 -5547.00048828125 L -2127.00048828125 -5497.56640625 M -2150.99951171875 -5497.56640625 L -2149.999267578125 -5497.56640625 L -2149.999267578125 -5547.00048828125 L -2150.99951171875 -5547.00048828125 L -2150.99951171875 -5497.56640625 M -2173 -5497.56640625 L -2171.999755859375 -5497.56640625 L -2171.999755859375 -5547.00048828125 L -2173 -5547.00048828125 L -2173 -5497.56640625 M -2189.999755859375 -5497.56640625 L -2188.99951171875 -5497.56640625 L -2188.99951171875 -5547.00048828125 L -2189.999755859375 -5547.00048828125 L -2189.999755859375 -5497.56640625 M -2107.9990234375 -5491 L -2108.0009765625 -5491 L -2108.0009765625 -5491.0009765625 L -2110.00048828125 -5491 L -2110.00048828125 -5548.00048828125 L -2108.000244140625 -5548.00048828125 L -2108.000244140625 -5550.00048828125 L -2107.9990234375 -5491 Z M -2111.00048828125 -5491 L -2111.00244140625 -5491 L -2111.00244140625 -5491.0009765625 L -2112.999267578125 -5491 L -2112.999267578125 -5548.00048828125 L -2111.00048828125 -5548.00048828125 L -2111.00048828125 -5491 Z M -2160.000244140625 -5491 L -2160.002197265625 -5491 L -2160.002197265625 -5491.0009765625 L -2163.00048828125 -5491 L -2163.00048828125 -5548.00048828125 L -2160.000244140625 -5548.00048828125 L -2160.000244140625 -5491 Z M -2165.00048828125 -5491 L -2165.00244140625 -5491 L -2165.00244140625 -5491.0009765625 L -2167.99951171875 -5491 L -2167.99951171875 -5548.00048828125 L -2165.00048828125 -5548.00048828125 L -2165.00048828125 -5491 Z M -2214.000244140625 -5491 L -2214.002197265625 -5491 L -2214.002197265625 -5491.0009765625 L -2218.00048828125 -5491 L -2218.00048828125 -5548.00048828125 L -2214.000244140625 -5548.00048828125 L -2214.000244140625 -5491 Z M -2114.99951171875 -5496.56591796875 L -2115.00146484375 -5496.56591796875 L -2115.00146484375 -5496.56689453125 L -2118.999755859375 -5496.56591796875 L -2118.999755859375 -5548.00048828125 L -2114.99951171875 -5548.00048828125 L -2114.99951171875 -5496.56591796875 Z M -2121 -5496.56591796875 L -2121.001953125 -5496.56591796875 L -2121.001953125 -5496.56689453125 L -2124.000244140625 -5496.56591796875 L -2124.000244140625 -5548.00048828125 L -2121 -5548.00048828125 L -2121 -5496.56591796875 Z M -2125.000244140625 -5496.56591796875 L -2125.002197265625 -5496.56591796875 L -2125.002197265625 -5496.56689453125 L -2128.00048828125 -5496.56591796875 L -2128.00048828125 -5548.00048828125 L -2125.000244140625 -5548.00048828125 L -2125.000244140625 -5496.56591796875 Z M -2130.000732421875 -5496.56591796875 L -2130.002685546875 -5496.56591796875 L -2130.002685546875 -5496.56689453125 L -2133.99951171875 -5496.56591796875 L -2133.99951171875 -5548.00048828125 L -2130.000732421875 -5548.00048828125 L -2130.000732421875 -5496.56591796875 Z M -2134.999755859375 -5496.56591796875 L -2135.001708984375 -5496.56591796875 L -2135.001708984375 -5496.56689453125 L -2141.000244140625 -5496.56591796875 L -2141.000244140625 -5548.00048828125 L -2134.999755859375 -5548.00048828125 L -2134.999755859375 -5496.56591796875 Z M -2143.000244140625 -5496.56591796875 L -2143.002197265625 -5496.56591796875 L -2143.002197265625 -5496.56689453125 L -2147.00048828125 -5496.56591796875 L -2147.00048828125 -5548.00048828125 L -2143.000244140625 -5548.00048828125 L -2143.000244140625 -5496.56591796875 Z M -2148.999267578125 -5496.56591796875 L -2149.001220703125 -5496.56591796875 L -2149.001220703125 -5496.56689453125 L -2151.99951171875 -5496.56591796875 L -2151.99951171875 -5548.00048828125 L -2148.999267578125 -5548.00048828125 L -2148.999267578125 -5496.56591796875 Z M -2154.001220703125 -5496.56591796875 L -2154.003173828125 -5496.56591796875 L -2154.003173828125 -5496.56689453125 L -2158 -5496.56591796875 L -2158 -5548.00048828125 L -2154.001220703125 -5548.00048828125 L -2154.001220703125 -5496.56591796875 Z M -2170.999755859375 -5496.56591796875 L -2171.001708984375 -5496.56591796875 L -2171.001708984375 -5496.56689453125 L -2174 -5496.56591796875 L -2174 -5548.00048828125 L -2170.999755859375 -5548.00048828125 L -2170.999755859375 -5496.56591796875 Z M -2176 -5496.56591796875 L -2176.001953125 -5496.56591796875 L -2176.001953125 -5496.56689453125 L -2182.00048828125 -5496.56591796875 L -2182.00048828125 -5548.00048828125 L -2176 -5548.00048828125 L -2176 -5496.56591796875 Z M -2183.999267578125 -5496.56591796875 L -2184.001220703125 -5496.56591796875 L -2184.001220703125 -5496.56689453125 L -2186.99951171875 -5496.56591796875 L -2186.99951171875 -5548.00048828125 L -2183.999267578125 -5548.00048828125 L -2183.999267578125 -5496.56591796875 Z M -2187.99951171875 -5496.56591796875 L -2188.00146484375 -5496.56591796875 L -2188.00146484375 -5496.56689453125 L -2190.999755859375 -5496.56591796875 L -2190.999755859375 -5548.00048828125 L -2187.99951171875 -5548.00048828125 L -2187.99951171875 -5496.56591796875 Z M -2192 -5496.56591796875 L -2192.001953125 -5496.56591796875 L -2192.001953125 -5496.56689453125 L -2196.000244140625 -5496.56591796875 L -2196.000244140625 -5548.00048828125 L -2192 -5548.00048828125 L -2192 -5496.56591796875 Z M -2197.9990234375 -5496.56591796875 L -2198.0009765625 -5496.56591796875 L -2198.0009765625 -5496.56689453125 L -2201.000732421875 -5496.56591796875 L -2201.000732421875 -5548.00048828125 L -2197.9990234375 -5548.00048828125 L -2197.9990234375 -5496.56591796875 Z M -2201.999267578125 -5496.56591796875 L -2202.001220703125 -5496.56591796875 L -2202.001220703125 -5496.56689453125 L -2204.99951171875 -5496.56591796875 L -2204.99951171875 -5548.00048828125 L -2201.999267578125 -5548.00048828125 L -2201.999267578125 -5496.56591796875 Z M -2208.001220703125 -5496.56591796875 L -2208.003173828125 -5496.56591796875 L -2208.003173828125 -5496.56689453125 L -2212 -5496.56591796875 L -2212 -5548.00048828125 L -2208.001220703125 -5548.00048828125 L -2208.001220703125 -5496.56591796875 Z" stroke="none" fill="#858585"/>
    </g>
    <path id="Path_635" data-name="Path 635" d="M6.606-6.66a4.394,4.394,0,0,1-.99,2.5L2.5.2,1.638-.4,4.1-3.8a3.665,3.665,0,0,1-.918.144,2.44,2.44,0,0,1-1.908-.882A2.992,2.992,0,0,1,.5-6.57a3.087,3.087,0,0,1,.9-2.214A2.917,2.917,0,0,1,3.564-9.7a2.984,2.984,0,0,1,2.124.9A2.86,2.86,0,0,1,6.606-6.66Zm-1.1,0A1.9,1.9,0,0,0,4.95-8.028a1.707,1.707,0,0,0-1.3-.612A2.061,2.061,0,0,0,2.2-8.046,1.824,1.824,0,0,0,1.6-6.66a1.912,1.912,0,0,0,.612,1.422,1.972,1.972,0,0,0,1.35.576,1.908,1.908,0,0,0,.792-.162,1.882,1.882,0,0,0,.612-.432,1.98,1.98,0,0,0,.4-.639A2.086,2.086,0,0,0,5.508-6.66Z" transform="translate(90 402)" fill="#858585"/>
    <path id="Path_636" data-name="Path 636" d="M6.336-2.646A2.7,2.7,0,0,1,5.49-.576,2.962,2.962,0,0,1,3.384.2a2.8,2.8,0,0,1-1.89-.666A2.61,2.61,0,0,1,.576-2.34H1.71a1.643,1.643,0,0,0,.594,1.1,1.789,1.789,0,0,0,1.17.414,1.709,1.709,0,0,0,.7-.144,1.688,1.688,0,0,0,.558-.4A1.874,1.874,0,0,0,5.1-1.962,1.992,1.992,0,0,0,5.238-2.7a1.807,1.807,0,0,0-.522-1.377,1.894,1.894,0,0,0-1.44-.459v-.99q1.818-.036,1.818-1.512a1.6,1.6,0,0,0-.459-1.179,1.551,1.551,0,0,0-1.143-.459,1.485,1.485,0,0,0-1.53,1.35H.828A2.491,2.491,0,0,1,3.528-9.7a3.035,3.035,0,0,1,1.062.18A2.355,2.355,0,0,1,5.427-9a2.569,2.569,0,0,1,.558.81,2.554,2.554,0,0,1,.207,1.044,2.365,2.365,0,0,1-1.17,2.124A2.5,2.5,0,0,1,6.336-2.646Zm6.336,1.26V0h-1.1V-1.386H7.056q.756-1.152,2.151-3.267T12.672-9.9v7.506h1.044v1.008Zm-1.1-4.95L8.946-2.394h2.628ZM20.52-3.168a3.192,3.192,0,0,1-.99,2.43A3.381,3.381,0,0,1,17.118.2a3.261,3.261,0,0,1-1.629-.432A2.912,2.912,0,0,1,14.31-1.476l.864-.828A2.163,2.163,0,0,0,16-1.269a2.1,2.1,0,0,0,1.188.387,2.079,2.079,0,0,0,1.566-.684,2.205,2.205,0,0,0,.666-1.62,2.184,2.184,0,0,0-.666-1.6,2.059,2.059,0,0,0-1.548-.684,2.113,2.113,0,0,0-1.71.846h-.252V-9.5h4.446v1.08H16.344v2.232A2.571,2.571,0,0,1,17.568-6.5a2.644,2.644,0,0,1,2.124.99A3.445,3.445,0,0,1,20.52-3.168ZM21.528,0,25.56-5.094a3.081,3.081,0,0,0,.828-1.71,1.72,1.72,0,0,0-.558-1.278,1.707,1.707,0,0,0-1.242-.54,1.64,1.64,0,0,0-1.188.495,2.033,2.033,0,0,0-.594,1.251H21.654a3.5,3.5,0,0,1,.936-2.07,2.7,2.7,0,0,1,2-.756,2.765,2.765,0,0,1,2.034.828,2.65,2.65,0,0,1,.864,2.016A3.124,3.124,0,0,1,26.8-4.9L23.778-1.08h3.708V0ZM34.794-4.752a7.134,7.134,0,0,1-.7,3.348A2.716,2.716,0,0,1,31.59.2a2.716,2.716,0,0,1-2.5-1.6,6.985,6.985,0,0,1-.72-3.348,6.985,6.985,0,0,1,.72-3.348,2.716,2.716,0,0,1,2.5-1.6,2.692,2.692,0,0,1,2.5,1.6A7.067,7.067,0,0,1,34.794-4.752ZM33.7-4.77a6.693,6.693,0,0,0-.432-2.556q-.558-1.368-1.674-1.368T29.916-7.326a6.693,6.693,0,0,0-.432,2.556,6.724,6.724,0,0,0,.432,2.538Q30.474-.864,31.59-.864t1.674-1.368A6.724,6.724,0,0,0,33.7-4.77Zm7.776,2.124a2.7,2.7,0,0,1-.846,2.07A2.867,2.867,0,0,1,38.592.2a2.841,2.841,0,0,1-2.016-.756,2.733,2.733,0,0,1-.864-2.088,2.308,2.308,0,0,1,1.44-2.286,2.488,2.488,0,0,1-1.206-2.124,2.49,2.49,0,0,1,.756-1.89,2.642,2.642,0,0,1,1.89-.756,2.542,2.542,0,0,1,1.872.756,2.49,2.49,0,0,1,.756,1.89,2.4,2.4,0,0,1-1.206,2.124A2.307,2.307,0,0,1,41.472-2.646Zm-1.314-4.41a1.574,1.574,0,0,0-.126-.621A1.711,1.711,0,0,0,39.69-8.2a1.719,1.719,0,0,0-.495-.36,1.366,1.366,0,0,0-.6-.135,1.366,1.366,0,0,0-.6.135,1.6,1.6,0,0,0-.486.36,1.8,1.8,0,0,0-.333.522,1.574,1.574,0,0,0-.126.621,1.6,1.6,0,0,0,.486,1.1,1.436,1.436,0,0,0,1.062.522,1.436,1.436,0,0,0,1.062-.522A1.531,1.531,0,0,0,40.158-7.056Zm.216,4.41a1.652,1.652,0,0,0-.54-1.26,1.777,1.777,0,0,0-1.242-.522,1.777,1.777,0,0,0-1.242.522,1.652,1.652,0,0,0-.54,1.26A1.707,1.707,0,0,0,37.35-1.4a1.707,1.707,0,0,0,1.242.54,1.688,1.688,0,0,0,1.224-.54A1.682,1.682,0,0,0,40.374-2.646Z" transform="translate(106 402)" fill="#858585"/>
    <path id="Path_637" data-name="Path 637" d="M1.332.2.468-.4,5.22-8.442H.45V-9.5H7.092ZM13.356-2.646a2.7,2.7,0,0,1-.846,2.07A2.962,2.962,0,0,1,10.4.2a2.8,2.8,0,0,1-1.89-.666A2.61,2.61,0,0,1,7.6-2.34H8.73a1.643,1.643,0,0,0,.594,1.1,1.789,1.789,0,0,0,1.17.414,1.709,1.709,0,0,0,.7-.144,1.688,1.688,0,0,0,.558-.4,1.874,1.874,0,0,0,.369-.594,1.992,1.992,0,0,0,.135-.738,1.807,1.807,0,0,0-.522-1.377,1.894,1.894,0,0,0-1.44-.459v-.99q1.818-.036,1.818-1.512a1.6,1.6,0,0,0-.459-1.179,1.551,1.551,0,0,0-1.143-.459,1.485,1.485,0,0,0-1.53,1.35H7.848a2.491,2.491,0,0,1,2.7-2.376,3.035,3.035,0,0,1,1.062.18A2.355,2.355,0,0,1,12.447-9a2.569,2.569,0,0,1,.558.81,2.554,2.554,0,0,1,.207,1.044,2.365,2.365,0,0,1-1.17,2.124A2.5,2.5,0,0,1,13.356-2.646Zm7.164-.522a3.192,3.192,0,0,1-.99,2.43A3.381,3.381,0,0,1,17.118.2a3.261,3.261,0,0,1-1.629-.432A2.912,2.912,0,0,1,14.31-1.476l.864-.828A2.163,2.163,0,0,0,16-1.269a2.1,2.1,0,0,0,1.188.387,2.079,2.079,0,0,0,1.566-.684,2.205,2.205,0,0,0,.666-1.62,2.184,2.184,0,0,0-.666-1.6,2.059,2.059,0,0,0-1.548-.684,2.113,2.113,0,0,0-1.71.846h-.252V-9.5h4.446v1.08H16.344v2.232A2.571,2.571,0,0,1,17.568-6.5a2.644,2.644,0,0,1,2.124.99A3.445,3.445,0,0,1,20.52-3.168ZM21.528,0,25.56-5.094a3.081,3.081,0,0,0,.828-1.71,1.72,1.72,0,0,0-.558-1.278,1.707,1.707,0,0,0-1.242-.54,1.64,1.64,0,0,0-1.188.495,2.033,2.033,0,0,0-.594,1.251H21.654a3.5,3.5,0,0,1,.936-2.07,2.7,2.7,0,0,1,2-.756,2.765,2.765,0,0,1,2.034.828,2.65,2.65,0,0,1,.864,2.016A3.124,3.124,0,0,1,26.8-4.9L23.778-1.08h3.708V0ZM34.794-4.752a7.134,7.134,0,0,1-.7,3.348A2.716,2.716,0,0,1,31.59.2a2.716,2.716,0,0,1-2.5-1.6,6.985,6.985,0,0,1-.72-3.348,6.985,6.985,0,0,1,.72-3.348,2.716,2.716,0,0,1,2.5-1.6,2.692,2.692,0,0,1,2.5,1.6A7.067,7.067,0,0,1,34.794-4.752ZM33.7-4.77a6.693,6.693,0,0,0-.432-2.556q-.558-1.368-1.674-1.368T29.916-7.326a6.693,6.693,0,0,0-.432,2.556,6.724,6.724,0,0,0,.432,2.538Q30.474-.864,31.59-.864t1.674-1.368A6.724,6.724,0,0,0,33.7-4.77Zm8.118.018a7.134,7.134,0,0,1-.7,3.348A2.716,2.716,0,0,1,38.61.2a2.716,2.716,0,0,1-2.5-1.6,6.985,6.985,0,0,1-.72-3.348,6.985,6.985,0,0,1,.72-3.348,2.716,2.716,0,0,1,2.5-1.6,2.692,2.692,0,0,1,2.5,1.6A7.067,7.067,0,0,1,41.814-4.752Zm-1.1-.018a6.693,6.693,0,0,0-.432-2.556q-.558-1.368-1.674-1.368T36.936-7.326A6.693,6.693,0,0,0,36.5-4.77a6.724,6.724,0,0,0,.432,2.538Q37.494-.864,38.61-.864t1.674-1.368A6.724,6.724,0,0,0,40.716-4.77Z" transform="translate(161 402)" fill="#858585"/>
    <path id="Rectangle_902" data-name="Rectangle 902" d="M0,0H96a1,1,0,0,1,1,1V74a0,0,0,0,1,0,0H3a3,3,0,0,1-3-3V0A0,0,0,0,1,0,0Z" transform="translate(238 336)" opacity="0.068"/>
    <path id="Rectangle_903" data-name="Rectangle 903" d="M2,0H90a0,0,0,0,1,0,0V26a0,0,0,0,1,0,0H2a2,2,0,0,1-2-2V2A2,2,0,0,1,2,0Z" transform="translate(245 377)" fill="#c7c7c7"/>
    <path id="Rectangle_904" data-name="Rectangle 904" d="M0,0H74a0,0,0,0,1,0,0V32a2,2,0,0,1-2,2H2a2,2,0,0,1-2-2V0A0,0,0,0,1,0,0Z" transform="translate(245 336)" fill="#c7c7c7"/>
    <path id="Rectangle_905" data-name="Rectangle 905" d="M0,0H8A1,1,0,0,1,9,1V34a0,0,0,0,1,0,0H2a2,2,0,0,1-2-2V0A0,0,0,0,1,0,0Z" transform="translate(326 336)" fill="#c7c7c7"/>
    <g id="Rectangle_874" data-name="Rectangle 874" transform="translate(39 334)" fill="none" stroke="#dedede" stroke-linecap="round" stroke-linejoin="round" stroke-width="2">
      <rect width="298" height="130" rx="3" stroke="none"/>
      <rect x="1" y="1" width="296" height="128" rx="2" fill="none"/>
    </g>
    <g id="Rectangle_906" data-name="Rectangle 906" transform="translate(77 383)" fill="none" stroke="#da1f26" stroke-linecap="round" stroke-linejoin="round" stroke-width="2" stroke-dasharray="6">
      <rect width="143" height="28" stroke="none"/>
      <rect x="1" y="1" width="141" height="26" fill="none"/>
    </g>
  </g>
</svg>
