<svg xmlns="http://www.w3.org/2000/svg" width="34" height="24" viewBox="0 0 34 24">
  <g id="ico-keyboard-menu-act" transform="translate(-279 -591)">
    <g id="Group_99" data-name="Group 99" transform="translate(222 -3)">
      <rect id="Rectangle_62" data-name="Rectangle 62" width="34" height="24" transform="translate(57 594)" fill="none"/>
    </g>
    <g id="Group_101" data-name="Group 101" transform="translate(-0.5 -0.778)">
      <g id="Group_100" data-name="Group 100" transform="translate(281 594.778)">
        <g id="Rectangle_66" data-name="Rectangle 66" fill="none" stroke="#a8c631" stroke-width="1">
          <rect width="31" height="18" rx="0.5" stroke="none"/>
          <rect x="0.5" y="0.5" width="30" height="17" fill="none"/>
        </g>
        <rect id="Rectangle_67" data-name="Rectangle 67" width="3.444" height="3.444" rx="0.5" transform="translate(2.296 2.296)" fill="#a8c631"/>
        <rect id="Rectangle_68" data-name="Rectangle 68" width="3.444" height="3.444" rx="0.5" transform="translate(6.889 2.296)" fill="#a8c631"/>
        <rect id="Rectangle_69" data-name="Rectangle 69" width="3.444" height="3.444" rx="0.5" transform="translate(11.481 2.296)" fill="#a8c631"/>
        <rect id="Rectangle_70" data-name="Rectangle 70" width="3.444" height="3.444" rx="0.5" transform="translate(16.074 2.296)" fill="#a8c631"/>
        <rect id="Rectangle_71" data-name="Rectangle 71" width="3.444" height="3.444" rx="0.5" transform="translate(20.667 2.296)" fill="#a8c631"/>
        <rect id="Rectangle_72" data-name="Rectangle 72" width="3.444" height="3.444" rx="0.5" transform="translate(25.259 2.296)" fill="#a8c631"/>
        <rect id="Rectangle_73" data-name="Rectangle 73" width="3.444" height="3.444" rx="0.5" transform="translate(2.296 7.278)" fill="#a8c631"/>
        <rect id="Rectangle_74" data-name="Rectangle 74" width="3.444" height="3.444" rx="0.5" transform="translate(6.889 7.278)" fill="#a8c631"/>
        <rect id="Rectangle_75" data-name="Rectangle 75" width="3.444" height="3.444" rx="0.5" transform="translate(11.481 7.278)" fill="#a8c631"/>
        <rect id="Rectangle_76" data-name="Rectangle 76" width="3.444" height="3.444" rx="0.5" transform="translate(16.074 7.278)" fill="#a8c631"/>
        <rect id="Rectangle_77" data-name="Rectangle 77" width="3.444" height="3.444" rx="0.5" transform="translate(20.667 7.278)" fill="#a8c631"/>
        <rect id="Rectangle_78" data-name="Rectangle 78" width="3.444" height="3.444" rx="0.5" transform="translate(25.259 7.278)" fill="#a8c631"/>
        <rect id="Rectangle_79" data-name="Rectangle 79" width="3.444" height="3.444" rx="0.5" transform="translate(2.296 12.259)" fill="#a8c631"/>
        <rect id="Rectangle_81" data-name="Rectangle 81" width="12.63" height="3.444" rx="0.5" transform="translate(6.889 12.259)" fill="#a8c631"/>
        <rect id="Rectangle_83" data-name="Rectangle 83" width="3.444" height="3.444" rx="0.5" transform="translate(20.667 12.259)" fill="#a8c631"/>
        <rect id="Rectangle_84" data-name="Rectangle 84" width="3.444" height="3.444" rx="0.5" transform="translate(25.259 12.259)" fill="#a8c631"/>
      </g>
    </g>
  </g>
</svg>
