<svg xmlns="http://www.w3.org/2000/svg" width="48.509" height="53.622" viewBox="0 0 48.509 53.622">
  <g id="ico-empty-cart" transform="translate(-10.626 0.75)" opacity="0.6">
    <path id="Path_9" data-name="Path 9" d="M104.7,113.457a1.689,1.689,0,0,0,1.677,1.515,1.711,1.711,0,0,0,.176-.009,1.688,1.688,0,0,0,1.506-1.853l-.779-7.535a1.688,1.688,0,0,0-3.359.347Z" transform="translate(-71.706 -80.634)" fill="#6a6a6a" stroke="#fff" stroke-width="1.5"/>
    <path id="Path_10" data-name="Path 10" d="M149.136,114.962a1.713,1.713,0,0,0,.176.009,1.689,1.689,0,0,0,1.677-1.515l.778-7.535a1.688,1.688,0,0,0-3.359-.347l-.778,7.535A1.688,1.688,0,0,0,149.136,114.962Z" transform="translate(-105.572 -80.633)" fill="#6a6a6a" stroke="#fff" stroke-width="1.5"/>
    <path id="Path_11" data-name="Path 11" d="M78.289,185.088a5.227,5.227,0,1,0,5.227,5.226A5.232,5.232,0,0,0,78.289,185.088Zm0,7.077a1.85,1.85,0,1,1,1.85-1.851A1.852,1.852,0,0,1,78.289,192.165Z" transform="translate(-47.8 -143.42)" fill="#6a6a6a" stroke="#fff" stroke-width="1.5"/>
    <path id="Path_12" data-name="Path 12" d="M155.73,185.088a5.227,5.227,0,1,0,5.227,5.226A5.232,5.232,0,0,0,155.73,185.088Zm0,7.077a1.85,1.85,0,1,1,1.85-1.851A1.852,1.852,0,0,1,155.73,192.165Z" transform="translate(-107.806 -143.42)" fill="#6a6a6a" stroke="#fff" stroke-width="1.5"/>
    <path id="Path_13" data-name="Path 13" d="M58.023,53.768a1.688,1.688,0,0,0-1.336-.656H23.032l-1.413-5.435a1.689,1.689,0,0,0-1.634-1.263h-6.92a1.688,1.688,0,1,0,0,3.377h5.615l1.4,5.391c.007.03.015.06.023.09l5.213,20.047a1.689,1.689,0,0,0,1.634,1.263h24.51A1.689,1.689,0,0,0,53.1,75.318l5.225-20.093A1.689,1.689,0,0,0,58.023,53.768ZM50.157,73.2h-21.9L23.91,56.489H54.5Z" transform="translate(0 -35.965)" fill="#6a6a6a" stroke="#fff" stroke-width="1.5"/>
    <path id="Path_14" data-name="Path 14" d="M85.576,24.66a1.689,1.689,0,1,0,2.387-2.389l-5.31-5.308a1.689,1.689,0,0,0-2.387,2.388Z" transform="translate(-52.997 -12.762)" fill="#6a6a6a" stroke="#fff" stroke-width="1.5"/>
    <path id="Path_15" data-name="Path 15" d="M153.363,25.156a1.684,1.684,0,0,0,1.195-.5l5.3-5.307a1.688,1.688,0,0,0-2.389-2.387l-5.3,5.307a1.688,1.688,0,0,0,1.194,2.882Z" transform="translate(-108.714 -12.764)" fill="#6a6a6a" stroke="#fff" stroke-width="1.5"/>
    <path id="Path_16" data-name="Path 16" d="M129.2,10.876h0a1.689,1.689,0,0,0,1.688-1.688l0-7.5A1.688,1.688,0,0,0,129.2,0h0a1.689,1.689,0,0,0-1.689,1.688l0,7.5A1.689,1.689,0,0,0,129.2,10.876Z" transform="translate(-89.988)" fill="#6a6a6a" stroke="#fff" stroke-width="1.5"/>
  </g>
</svg>
