<svg xmlns="http://www.w3.org/2000/svg" width="16" height="16" viewBox="0 0 16 16">
  <g id="ico-plus-click" transform="translate(-315 -275)">
    <g id="Path_29" data-name="Path 29" transform="translate(315 275)" fill="none">
      <path d="M8,0A8,8,0,1,1,0,8,8,8,0,0,1,8,0Z" stroke="none"/>
      <path d="M 8 1 C 4.140190124511719 1 1 4.140190124511719 1 8 C 1 11.85980987548828 4.140190124511719 15 8 15 C 11.85980987548828 15 15 11.85980987548828 15 8 C 15 4.140190124511719 11.85980987548828 1 8 1 M 8 0 C 12.41827964782715 0 16 3.581720352172852 16 8 C 16 12.41827964782715 12.41827964782715 16 8 16 C 3.581720352172852 16 0 12.41827964782715 0 8 C 0 3.581720352172852 3.581720352172852 0 8 0 Z" stroke="none" fill="#6a6a6a"/>
    </g>
    <g id="Group_28" data-name="Group 28" transform="translate(323 286.394) rotate(-135)">
      <line id="Line_3" data-name="Line 3" x2="4.8" y2="4.8" transform="translate(0)" fill="none" stroke="#6a6a6a" stroke-linecap="round" stroke-width="1"/>
      <line id="Line_4" data-name="Line 4" y1="4.8" x2="4.8" transform="translate(0)" fill="none" stroke="#6a6a6a" stroke-linecap="round" stroke-width="1"/>
    </g>
  </g>
</svg>
