<svg xmlns="http://www.w3.org/2000/svg" width="62" height="50.379" viewBox="0 0 62 50.379">
  <g id="ico-date" transform="translate(-5757 -8642)" opacity="0.15">
    <path id="Subtraction_14" data-name="Subtraction 14" d="M64.5,49.482H21.832a4,4,0,0,1-4-4V8.5h2V45.482a2,2,0,0,0,2,2H64.5v2Z" transform="translate(5754 8634)" fill="#a8a8a8" stroke="rgba(0,0,0,0)" stroke-width="1"/>
    <g id="Group_298" data-name="Group 298" transform="translate(5617 8426)" opacity="0.498">
      <rect id="Rectangle_175" data-name="Rectangle 175" width="5.931" height="5.931" rx="0.5" transform="translate(161.765 227.569)" fill="#a8a8a8"/>
      <rect id="Rectangle_176" data-name="Rectangle 176" width="5.931" height="5.931" rx="0.5" transform="translate(170.664 227.569)" fill="#a8a8a8"/>
      <rect id="Rectangle_177" data-name="Rectangle 177" width="5.931" height="5.931" rx="0.5" transform="translate(179.564 227.569)" fill="#a8a8a8"/>
      <path id="Subtraction_30" data-name="Subtraction 30" d="M-3881.364-10115.5H-3885a.5.5,0,0,1-.5-.5v-4.932a.5.5,0,0,1,.5-.5h3.636v5.929Z" transform="translate(4082.863 10349)" fill="#a8a8a8" stroke="rgba(0,0,0,0)" stroke-width="1"/>
      <rect id="Rectangle_180" data-name="Rectangle 180" width="5.931" height="5.931" rx="0.5" transform="translate(188.463 227.569)" fill="#a8a8a8"/>
    </g>
    <g id="Group_299" data-name="Group 299" transform="translate(5617 8426)" opacity="0.498">
      <rect id="Rectangle_175-2" data-name="Rectangle 175-2" width="5.931" height="5.931" rx="0.5" transform="translate(161.765 236.465)" fill="#a8a8a8"/>
      <rect id="Rectangle_176-2" data-name="Rectangle 176-2" width="5.931" height="5.931" rx="0.5" transform="translate(170.664 236.465)" fill="#a8a8a8"/>
      <rect id="Rectangle_177-2" data-name="Rectangle 177-2" width="5.931" height="5.931" rx="0.5" transform="translate(179.564 236.465)" fill="#a8a8a8"/>
      <path id="Subtraction_31" data-name="Subtraction 31" d="M-3881.364-10106.6H-3885a.5.5,0,0,1-.5-.5v-4.929a.5.5,0,0,1,.5-.5h3.636v5.929Z" transform="translate(4082.863 10349)" fill="#a8a8a8" stroke="rgba(0,0,0,0)" stroke-width="1"/>
      <rect id="Rectangle_180-2" data-name="Rectangle 180-2" width="5.931" height="5.931" rx="0.5" transform="translate(188.463 236.465)" fill="#a8a8a8"/>
    </g>
    <g id="Group_300" data-name="Group 300" transform="translate(5617 8426)" opacity="0.498">
      <rect id="Rectangle_175-3" data-name="Rectangle 175-3" width="5.931" height="5.931" rx="0.5" transform="translate(161.765 245.362)" fill="#a8a8a8"/>
      <rect id="Rectangle_176-3" data-name="Rectangle 176-3" width="5.931" height="5.931" rx="0.5" transform="translate(170.664 245.362)" fill="#a8a8a8"/>
      <rect id="Rectangle_177-3" data-name="Rectangle 177-3" width="5.931" height="5.931" rx="0.5" transform="translate(179.564 245.362)" fill="#a8a8a8"/>
    </g>
    <g id="Group_296" data-name="Group 296" transform="translate(5617 8426)">
      <g id="Group_321" data-name="Group 321">
        <ellipse id="Ellipse_22" data-name="Ellipse 22" cx="15.574" cy="15.569" rx="15.574" ry="15.569" transform="translate(141 234.241)" fill="#fff"/>
        <path id="Path_384" data-name="Path 384" d="M156.574,266.379a16.569,16.569,0,1,1,16.574-16.569A16.59,16.59,0,0,1,156.574,266.379Zm0-31.138a14.569,14.569,0,1,0,14.574,14.569A14.588,14.588,0,0,0,156.574,235.241Z" fill="#a8a8a8"/>
      </g>
      <g id="Group_291" data-name="Group 291">
        <g id="Group_322" data-name="Group 322">
          <path id="Path_373" data-name="Path 373" d="M171.406,249.81H167.7" fill="#fff"/>
          <path id="Path_385" data-name="Path 385" d="M171.406,250.81H167.7a1,1,0,0,1,0-2h3.708a1,1,0,0,1,0,2Z" fill="#a8a8a8"/>
        </g>
        <g id="Group_323" data-name="Group 323">
          <path id="Path_374" data-name="Path 374" d="M144.708,249.81H141" fill="#fff"/>
          <path id="Path_386" data-name="Path 386" d="M144.708,250.81H141a1,1,0,0,1,0-2h3.708a1,1,0,0,1,0,2Z" fill="#a8a8a8"/>
        </g>
      </g>
      <g id="Group_292" data-name="Group 292">
        <g id="Group_324" data-name="Group 324">
          <path id="Path_373-2" data-name="Path 373-2" d="M156.2,265.008V261.3" fill="#fff"/>
          <path id="Path_387" data-name="Path 387" d="M156.2,266.008a1,1,0,0,1-1-1V261.3a1,1,0,0,1,2,0v3.707A1,1,0,0,1,156.2,266.008Z" fill="#a8a8a8"/>
        </g>
        <g id="Group_325" data-name="Group 325">
          <path id="Path_374-2" data-name="Path 374-2" d="M156.2,238.319v-3.707" fill="#fff"/>
          <path id="Path_388" data-name="Path 388" d="M156.2,239.319a1,1,0,0,1-1-1v-3.707a1,1,0,0,1,2,0v3.707A1,1,0,0,1,156.2,239.319Z" fill="#a8a8a8"/>
        </g>
      </g>
      <g id="Group_326" data-name="Group 326">
        <path id="Path_375" data-name="Path 375" d="M155.832,242.961v7.11l3.456,3.068" fill="#fff"/>
        <path id="Path_389" data-name="Path 389" d="M159.288,254.14a1,1,0,0,1-.664-.252l-3.456-3.069a1,1,0,0,1-.336-.748v-7.11a1,1,0,0,1,2,0v6.661l3.12,2.77a1,1,0,0,1-.664,1.748Z" fill="#a8a8a8"/>
      </g>
    </g>
    <g id="Group_328" data-name="Group 328" transform="translate(5617 8426)">
      <path id="Path_371" data-name="Path 371" d="M155.833,222.381h44.686" transform="translate(0)" fill="#fff"/>
      <path id="Path_383" data-name="Path 383" d="M201.519,223.381H155.676a1.015,1.015,0,0,1,0-2h45.844Z" transform="translate(0)" fill="#a8a8a8"/>
    </g>
  </g>
</svg>
