<svg xmlns="http://www.w3.org/2000/svg" width="48" height="48" viewBox="0 0 48 48">
  <g id="ico-empty-cart" transform="translate(-160 -474)" opacity="0.772">
    <rect id="Rectangle_875" data-name="Rectangle 875" width="48" height="48" transform="translate(160 474)" fill="none"/>
    <g id="Group_537" data-name="Group 537" transform="translate(-3.6 -4)">
      <g id="Symbols" transform="translate(169 483)">
        <g id="tabbar---cart" transform="translate(0 0)">
          <path id="Fill-1" d="M14.951,10.381a4.742,4.742,0,0,0-2.917,3.744,3.243,3.243,0,0,0,3.276,3.946,7.365,7.365,0,0,0,1.871-.255.248.248,0,0,0,.164-.194l.371-2.168a.249.249,0,0,0-.379-.253,2.269,2.269,0,0,1-1.208.378,1.3,1.3,0,0,1-1.306-1.529,1.839,1.839,0,0,1,1.734-1.532,1.817,1.817,0,0,1,1.172.474.249.249,0,0,0,.406-.157l.321-2.264a.249.249,0,0,0-.184-.276,6.711,6.711,0,0,0-1.615-.245,5.447,5.447,0,0,0-1.707.332" transform="translate(3.207 2.687)" fill="#8b8b8b" fill-rule="evenodd"/>
          <path id="Fill-3" d="M25.691,23.045a.523.523,0,0,1-.5-.35L22.42,14.939a.519.519,0,0,1,.064-.479.525.525,0,0,1,.61-.194l7.756,2.774a.527.527,0,0,1,.109.939L29,19.248a.079.079,0,0,0-.036.058.077.077,0,0,0,.023.064L30.809,21.2a1.031,1.031,0,0,1-.012,1.47,1.008,1.008,0,0,1-.706.283,1.088,1.088,0,0,1-.764-.317l-1.8-1.8a.077.077,0,0,0-.055-.023.079.079,0,0,0-.067.036L26.132,22.8a.523.523,0,0,1-.441.241" transform="translate(5.988 3.807)" fill="#8b8b8b" fill-rule="evenodd"/>
          <path id="Fill-5" d="M21.6,12.761a.368.368,0,0,0-.544,0,.429.429,0,0,0,0,.58l.855.911a.368.368,0,0,0,.544,0,.429.429,0,0,0,0-.58Z" transform="translate(5.603 3.381)" fill="#8b8b8b" fill-rule="evenodd"/>
          <path id="Fill-7" d="M22.111,15.058a.4.4,0,0,0-.385-.41H20.517a.411.411,0,0,0,0,.82h1.209a.4.4,0,0,0,.385-.41" transform="translate(5.385 3.918)" fill="#8b8b8b" fill-rule="evenodd"/>
          <path id="Fill-9" d="M21.774,15.995l-.855.911a.429.429,0,0,0,0,.58.368.368,0,0,0,.544,0l.855-.911a.429.429,0,0,0,0-.58.368.368,0,0,0-.544,0" transform="translate(5.565 4.246)" fill="#8b8b8b" fill-rule="evenodd"/>
          <path id="Fill-11" d="M23.215,13.882a.4.4,0,0,0,.385-.41V12.184a.385.385,0,1,0-.769,0v1.288a.4.4,0,0,0,.385.41" transform="translate(6.106 3.149)" fill="#8b8b8b" fill-rule="evenodd"/>
          <path id="Fill-13" d="M24.366,14.223a.372.372,0,0,0,.272-.12l.855-.911a.429.429,0,0,0,0-.58.368.368,0,0,0-.544,0l-.855.911a.429.429,0,0,0,0,.58.372.372,0,0,0,.272.12" transform="translate(6.414 3.341)" fill="#8b8b8b" fill-rule="evenodd"/>
          <path id="Fill-15" d="M30.917,35.638a2.452,2.452,0,0,1-1.755-4.126.314.314,0,0,1,.058-.057,2.452,2.452,0,0,1,4.094,1.786,2.4,2.4,0,0,1-2.4,2.4m-18.772,0a2.452,2.452,0,0,1-1.755-4.126.316.316,0,0,1,.058-.057,2.452,2.452,0,0,1,4.094,1.786,2.4,2.4,0,0,1-2.4,2.4M31.622,28.5H8.686a2.46,2.46,0,0,1-2.458-2.458v-.651a.291.291,0,0,1,.415-.261,4.88,4.88,0,0,0,2.042.446H28.155a.29.29,0,0,0,.281-.36l-.443-1.773a.29.29,0,0,0-.281-.22H8.686a2.46,2.46,0,0,1-2.458-2.458V8.385a.29.29,0,0,1,.33-.287l27.7,3.816a.29.29,0,0,1,.251.287v5.424a.29.29,0,0,0,.173.265l1.773.784a.29.29,0,0,0,.407-.265V10.832a.111.111,0,0,0-.009-.052c0-.017-.009-.044-.009-.061s-.009-.035-.009-.052a.576.576,0,0,1-.018-.061c-.009-.017-.009-.035-.017-.052s-.009-.035-.017-.052a.426.426,0,0,1-.026-.061.194.194,0,0,0-.026-.044l-.026-.052c-.009-.017-.017-.026-.026-.044s-.026-.035-.035-.052a.152.152,0,0,0-.035-.044c-.009-.017-.026-.026-.035-.044s-.026-.026-.035-.044-.026-.026-.035-.035l-.044-.044c-.017-.009-.026-.026-.044-.035s-.035-.026-.052-.035-.026-.017-.044-.026a.183.183,0,0,1-.052-.035l-.052-.026-.052-.026-.052-.026c-.017-.009-.035-.009-.052-.017A.162.162,0,0,0,36,9.795a.376.376,0,0,1-.044-.009.193.193,0,0,0-.07-.009c-.009,0-.017-.009-.035-.009L6.487,5.716a.29.29,0,0,1-.25-.287V2.8a.535.535,0,0,0-.009-.122.066.066,0,0,0-.009-.035c0-.026-.009-.052-.009-.078S6.2,2.523,6.194,2.5s-.009-.026-.009-.044l-.026-.078c0-.009-.009-.026-.009-.035a.261.261,0,0,0-.035-.07c-.009-.009-.009-.026-.017-.035a.182.182,0,0,0-.035-.052c-.009-.018-.017-.026-.026-.044s-.017-.026-.026-.044-.026-.035-.035-.052L5.95,2.018,5.9,1.966l-.026-.026a.382.382,0,0,0-.061-.052c-.009-.009-.026-.017-.035-.026s-.035-.026-.052-.044a.784.784,0,0,0-.07-.044c-.009-.009-.017-.009-.026-.017-.035-.017-.078-.035-.113-.052L1.636.093a1.178,1.178,0,0,0-.915,2.17L3.7,3.5a.29.29,0,0,1,.178.268V26.043a4.816,4.816,0,0,0,3.8,4.7.29.29,0,0,1,.2.412,4.748,4.748,0,1,0,8.571.109.29.29,0,0,1,.264-.41h9.617a.289.289,0,0,1,.265.409,4.692,4.692,0,0,0-.438,1.988A4.755,4.755,0,0,0,30.909,38c3.676,0,6.405-4.222,3.582-8.062A3.557,3.557,0,0,0,31.622,28.5" transform="translate(0 0)" fill="#8b8b8b" fill-rule="evenodd"/>
        </g>
      </g>
    </g>
  </g>
</svg>
