<svg id="ico-tel" xmlns="http://www.w3.org/2000/svg" width="24" height="24" viewBox="0 0 24 24">
  <g id="Group_27" data-name="Group 27" transform="translate(-15 -12)">
    <rect id="Rectangle_23" data-name="Rectangle 23" width="24" height="24" transform="translate(15 12)" fill="none"/>
    <g id="call-answer" transform="translate(19.5 16.613)" opacity="0.8">
      <g id="Group_491" data-name="Group 491" transform="translate(0 0.387)">
        <g id="Group_490" data-name="Group 490" transform="translate(0 0)">
          <path id="Path_570" data-name="Path 570" d="M14.666,12.228,12.349,9.911a1.208,1.208,0,0,0-1.7.032L9.478,11.11l-.23-.128A11.616,11.616,0,0,1,6.44,8.951,11.681,11.681,0,0,1,4.406,6.139c-.043-.078-.085-.153-.126-.225l.783-.782.385-.386a1.207,1.207,0,0,0,.031-1.7L3.163.725a1.2,1.2,0,0,0-1.7.032,3.09,3.09,0,0,0-.653.657,3.623,3.623,0,0,0-.52.967,3.935,3.935,0,0,0-.239.963c-.306,2.536.853,4.854,4,8,4.348,4.348,7.852,4.019,8,4a3.915,3.915,0,0,0,.965-.243,3.651,3.651,0,0,0,.946-.536,3.758,3.758,0,0,0,.676-.635A1.213,1.213,0,0,0,14.666,12.228Z" transform="translate(0 -0.387)"/>
        </g>
      </g>
    </g>
  </g>
</svg>
