<svg xmlns="http://www.w3.org/2000/svg" width="45" height="47.129" viewBox="0 0 45 47.129">
  <g id="ico-customer" transform="translate(-75 -17)">
    <g id="_2864838703ffd280a8b3752e3fd8f8ac" data-name="2864838703ffd280a8b3752e3fd8f8ac" transform="translate(75 17)" fill="#d1d1d1">
      <path d="M 22.5 44.25 C 19.56344032287598 44.25 16.71511077880859 43.67504119873047 14.03415012359619 42.54108810424805 C 11.44425964355469 41.44565963745117 9.118149757385254 39.87730026245117 7.120429992675781 37.87957000732422 C 5.122700214385986 35.88185119628906 3.55433988571167 33.55574035644531 2.45890998840332 30.96585083007813 C 1.324959993362427 28.28488922119141 0.75 25.43655967712402 0.75 22.5 C 0.75 19.56344032287598 1.324959993362427 16.71511077880859 2.45890998840332 14.03415012359619 C 3.55433988571167 11.44425964355469 5.122700214385986 9.118149757385254 7.120429992675781 7.120429992675781 C 9.118149757385254 5.122700214385986 11.44425964355469 3.55433988571167 14.03415012359619 2.45890998840332 C 16.71511077880859 1.324959993362427 19.56344032287598 0.75 22.5 0.75 C 25.43655967712402 0.75 28.28488922119141 1.324959993362427 30.96585083007813 2.45890998840332 C 33.55574035644531 3.55433988571167 35.88185119628906 5.122700214385986 37.87957000732422 7.120429992675781 C 39.87730026245117 9.118149757385254 41.44565963745117 11.44425964355469 42.54108810424805 14.03415012359619 C 43.67504119873047 16.71511077880859 44.25 19.56344032287598 44.25 22.5 C 44.25 25.43655967712402 43.67504119873047 28.28488922119141 42.54108810424805 30.96585083007813 C 41.44565963745117 33.55574035644531 39.87730026245117 35.88185119628906 37.87957000732422 37.87957000732422 C 35.88185119628906 39.87730026245117 33.55574035644531 41.44565963745117 30.96585083007813 42.54108810424805 C 28.28488922119141 43.67504119873047 25.43655967712402 44.25 22.5 44.25 Z" stroke="none"/>
      <path d="M 22.5 1.5 C 19.66436004638672 1.5 16.91432952880859 2.055030822753906 14.32630920410156 3.149669647216797 C 11.82582092285156 4.207279205322266 9.579841613769531 5.721668243408203 7.650760650634766 7.650760650634766 C 5.721668243408203 9.579841613769531 4.207279205322266 11.82582092285156 3.149669647216797 14.32630920410156 C 2.055030822753906 16.91432952880859 1.5 19.66436004638672 1.5 22.5 C 1.5 25.33563995361328 2.055030822753906 28.08567047119141 3.149669647216797 30.67369079589844 C 4.207279205322266 33.17417907714844 5.721668243408203 35.42015838623047 7.650760650634766 37.34923934936523 C 9.579841613769531 39.27832794189453 11.82582092285156 40.79272079467773 14.32630920410156 41.8503303527832 C 16.91432952880859 42.94496917724609 19.66436004638672 43.5 22.5 43.5 C 25.33563995361328 43.5 28.08567047119141 42.94496917724609 30.67369079589844 41.8503303527832 C 33.17417907714844 40.79272079467773 35.42015838623047 39.27832794189453 37.34923934936523 37.34923934936523 C 39.27832794189453 35.42015838623047 40.79272079467773 33.17417907714844 41.8503303527832 30.67369079589844 C 42.94496917724609 28.08567047119141 43.5 25.33563995361328 43.5 22.5 C 43.5 19.66436004638672 42.94496917724609 16.91432952880859 41.8503303527832 14.32630920410156 C 40.79272079467773 11.82582092285156 39.27832794189453 9.579841613769531 37.34923934936523 7.650760650634766 C 35.42015838623047 5.721668243408203 33.17417907714844 4.207279205322266 30.67369079589844 3.149669647216797 C 28.08567047119141 2.055030822753906 25.33563995361328 1.5 22.5 1.5 M 22.5 0 C 34.92641067504883 0 45 10.07358932495117 45 22.5 C 45 34.92641067504883 34.92641067504883 45 22.5 45 C 10.07358932495117 45 0 34.92641067504883 0 22.5 C 0 10.07358932495117 10.07358932495117 0 22.5 0 Z" stroke="none" fill="#ebebeb"/>
    </g>
    <path id="Subtraction_10" data-name="Subtraction 10" d="M-350.671,17.7v0a16.752,16.752,0,0,0,4.564-1.954,14.867,14.867,0,0,0,3.606-3.1,14.774,14.774,0,0,1-3.556,3.076A16.709,16.709,0,0,1-350.671,17.7Zm-9.442-.108a16.832,16.832,0,0,1-3.6-1.5,14.985,14.985,0,0,1-4.1-3.345,15.049,15.049,0,0,0,4.1,3.344,16.863,16.863,0,0,0,3.592,1.5Zm4.914-3.043a23.472,23.472,0,0,1-8.123-1.425,21.274,21.274,0,0,1-6.635-3.883l-.042-.1C-367.8,3.672-361.857,0-355.2,0s12.605,3.673,14.8,9.139l-.04.1a21.327,21.327,0,0,1-6.637,3.884A23.488,23.488,0,0,1-355.2,14.547Z" transform="translate(452.836 46.431)" fill="#fff"/>
    <g id="Group_387" data-name="Group 387" transform="translate(0 2)">
      <circle id="Ellipse_569" data-name="Ellipse 569" cx="10.5" cy="10.5" r="10.5" transform="translate(87 22)" fill="#fff"/>
      <g id="Group_482" data-name="Group 482">
        <circle id="Ellipse_580" data-name="Ellipse 580" cx="1" cy="1" r="1" transform="translate(92.5 32)" fill="#d1d1d1"/>
        <circle id="Ellipse_581" data-name="Ellipse 581" cx="1" cy="1" r="1" transform="translate(100.5 32)" fill="#d1d1d1"/>
        <path id="Path_433" data-name="Path 433" d="M7832.214,10191a2.232,2.232,0,0,0,3.691,0" transform="translate(-7736.5 -10155)" fill="none" stroke="#d1d1d1" stroke-linecap="round" stroke-linejoin="round" stroke-width="0.7"/>
      </g>
    </g>
    <g id="_2864838703ffd280a8b3752e3fd8f8ac-2" data-name="2864838703ffd280a8b3752e3fd8f8ac" transform="translate(75 17)" fill="none" stroke="#ebebeb" stroke-width="1.5">
      <circle cx="22.5" cy="22.5" r="22.5" stroke="none"/>
      <circle cx="22.5" cy="22.5" r="21.75" fill="none"/>
    </g>
  </g>
</svg>
