<svg xmlns="http://www.w3.org/2000/svg" xmlns:xlink="http://www.w3.org/1999/xlink" width="345" height="510" viewBox="0 0 345 510">
  <defs>
    <filter id="Rectangle_183" x="0" y="0" width="345" height="510" filterUnits="userSpaceOnUse">
      <feOffset dy="1" input="SourceAlpha"/>
      <feGaussianBlur stdDeviation="5" result="blur"/>
      <feFlood flood-opacity="0.102"/>
      <feComposite operator="in" in2="blur"/>
      <feComposite in="SourceGraphic"/>
    </filter>
    <filter id="Ellipse_26" x="234" y="74" width="57" height="57" filterUnits="userSpaceOnUse">
      <feOffset dy="1" input="SourceAlpha"/>
      <feGaussianBlur stdDeviation="5" result="blur-2"/>
      <feFlood flood-opacity="0.102"/>
      <feComposite operator="in" in2="blur-2"/>
      <feComposite in="SourceGraphic"/>
    </filter>
    <filter id="Ellipse_26-2" x="193" y="137" width="57" height="57" filterUnits="userSpaceOnUse">
      <feOffset dy="1" input="SourceAlpha"/>
      <feGaussianBlur stdDeviation="5" result="blur-3"/>
      <feFlood flood-opacity="0.102"/>
      <feComposite operator="in" in2="blur-3"/>
      <feComposite in="SourceGraphic"/>
    </filter>
    <filter id="Ellipse_26-3" x="206" y="229" width="57" height="57" filterUnits="userSpaceOnUse">
      <feOffset dy="1" input="SourceAlpha"/>
      <feGaussianBlur stdDeviation="5" result="blur-4"/>
      <feFlood flood-opacity="0.102"/>
      <feComposite operator="in" in2="blur-4"/>
      <feComposite in="SourceGraphic"/>
    </filter>
    <filter id="Ellipse_26-4" x="250" y="277" width="57" height="57" filterUnits="userSpaceOnUse">
      <feOffset dy="1" input="SourceAlpha"/>
      <feGaussianBlur stdDeviation="5" result="blur-5"/>
      <feFlood flood-opacity="0.102"/>
      <feComposite operator="in" in2="blur-5"/>
      <feComposite in="SourceGraphic"/>
    </filter>
  </defs>
  <g id="img-cashier-map" transform="translate(-15 -143)">
    <g transform="matrix(1, 0, 0, 1, 15, 143)" filter="url(#Rectangle_183)">
      <g id="Rectangle_183-2" data-name="Rectangle 183" transform="translate(15 14)" fill="#fff" stroke="#fff" stroke-width="1">
        <rect width="315" height="480" rx="6" stroke="none"/>
        <rect x="0.5" y="0.5" width="314" height="479" rx="5.5" fill="none"/>
      </g>
    </g>
    <g id="Group_591" data-name="Group 591">
      <g id="Group_381" data-name="Group 381" transform="translate(8 71)" opacity="0.904">
        <g id="Map" transform="translate(24 88)">
          <path id="Path_432" data-name="Path 432" d="M0,0H310.185V476H0Z" fill="rgba(196,196,196,0.4)"/>
          <path id="Intersection_2" data-name="Intersection 2" d="M198.5,476l-8.084-19.852-14.987,3.541L173.313,476h-3.358l5.286-40.829-9.142.965-16.79,39.81h-7.027l8.83-20.978-20.148-4.077-11.007,24.3,2.177.8h-6.095l5.472-12.071-21.89-7.243A202.006,202.006,0,0,1,88.74,476H81.029c9.949-14.808,17.536-31.547,22.7-45.175L56.59,427.713,65.917,476H59.2l-2.984-15.4-27.051,3.971-.249,3.112L34.576,476H30.72l-2.239-3.272L28.233,476h-3.3l.933-10.944-19.775,2.9.684,7.994H.125L0,474.456V382.785l5.908-17.416L0,364.936v-5.707l7.773.561,7.711-22.749L0,330.6V320.1l4.1,1.7,14.3-43.459L4.913,271.8,0,284.823v-9.208l1.8-4.781L0,270.574V267.7l2.861.4L12.5,242.56,0,238.166v-3.106l13.495,4.763,17.288-45.711L0,196.642v-5.777l46.391-3.781L13.184,154.2c-2.269.187-8.62.738-13.184,1.09v-2.8l12.127-1.028-1.244-16.042L0,136.615v-9.606l9.639-1.034L7.4,113.8c-2.711.367-5.253.714-7.4,1v-2.939l6.9-.906L4.6,98.666,0,99.187V96.308l4.042-.486L.933,78.975,0,79.054v-5.7L25.994,71.2l-4.1-25.217C14.968,47.214,7.6,48.157,0,48.865V43.137q1.91-.177,3.794-.377L1.866,20.065,0,19.871V14.08l1.306.138L.125.053H6.779l3.607,41.9c3.855-.536,7.587-1.073,11.193-1.771L24.937.053h3.3l-3.3,39.434c9.826-2.039,18.407-4.775,25-8.477.435-.268.933-.59,1.43-.858L30.783.053h3.855l8.768,12.823,16.6-8.531L59.2.053h6.716L68.9,15.559A119.411,119.411,0,0,0,81.029.053H88.74q-1.4,2.253-2.985,4.507l24.937,7.457L116.1.053H122.2l17.412,6.278L142.282.053h7.027l-.56,1.4,20.335,5.419.87-6.814h3.358l-1.057,7.672,15.919,4.292c2.177-.536,7.649-1.878,13.806-3.326L198.436,0h3.483c1.306,3.165,2.425,6.009,3.234,7.94,5.1-1.234,10.261-2.468,14.116-3.38L216.719.053h12.313l1.12,1.878L237.675.053h23.693C249.926,2.9,239.355,5.579,233.074,7.136l10.572,18.617,24.687-3.595L265.162.053h6.654l3.11,21.193,25.248-3.7L303.9.053h6.281V22.837l-1.68,7.69,1.68.427v2.94l-2.053-.523,2.053,3.825v13.6l-4.229-7.871L296.69,86.487a22.915,22.915,0,0,1,7.214,6.492l6.281-3.26V93.1l-4.727,2.456a19.03,19.03,0,0,1,1.99,8.316c0,.429-.062.8-.062,1.234l2.8.453v9.7l-6.032-.975a24.4,24.4,0,0,1-16.728,10.087l-9.265,24.948,32.026,5.542v2.928l-14.738-2.568c-.373,2.039-1.12,5.955-1.927,10.194l16.666,1.9v2.883L293.021,168.2c-.746,4.024-1.493,7.994-1.99,10.569l19.154,3.121v5.8l-20.4-3.289L282.2,214.339l27.984-22.559v3.958L281.7,218.632l11.38,12.018,17.1-8.759v6.6L297.312,235.1l9.576,10.033,3.3-1.682v3.354l-1.244.635,1.244,1.313v4.482L294.452,236.6l-33.207,17.008,48.94,7.591v9.687L297.312,268.9l-6.218,31.923,19.091,3.92v2.934l-19.651-4.064-3.669,18.939c8.209,1.336,16.16,2.672,23.32,3.855v5.8l-15.547-2.574-4.975,29.884L304.9,362.2l5.286-19v12.383l-1.991,7.156,1.991.347v5.843l-21.392-3.722-2.923,17.544,24.315,4.139v2.86l-24.812-4.208L281.828,407l28.357,4.191v5.812l-29.29-4.316-3.482,21.085,32.773,3.865v5.719l-14.241-1.7-3.607,20.548,15.236-3.809,2.612-12.092v29.635H303.78l2.425-11.267c-7.96,2.039-21.268,5.365-34.763,8.745l.373,2.522h-6.654l-.124-.912c-1.244.322-2.425.59-3.669.912H237.675l27.238-6.76,2.425-14.808-43.9,11.75,5.6,9.872H216.719L203.66,453.036,193.586,455.4c1.43,3.541,5.286,13.037,8.4,20.6Zm73.317-8.585,16.977-4.238,3.794-21.783-16.169-1.931ZM4.1,444.989l1.741,20.119,49.811-7.35L52.3,440.482Zm212.055,8.37,5.783,10.14,16.6-4.507-3.11-10.408ZM100.929,454l21.827,7.189,4.975-10.945-22.947-4.667C103.6,448.369,102.3,451.158,100.929,454Zm137.68-6.17,3.11,10.355,26.118-6.974,1.8-11.052ZM178.6,434.8l-2.8,21.836,26.367-6.224L192.4,433.239Zm-44.09,11,18.9,3.809,5.97-14.271-11.939-4.238Zm70.022-12.93,8.706,15.291L270.7,433.99l1.741-10.409-58.207-7.243Zm-97.446,7.35,23.942,4.828,13.93-15.827-13.433-19.744-13.681-.322A283.12,283.12,0,0,1,107.084,440.214ZM2.3,423.636l1.306,15.612L51.242,434.8l-2.8-14.54Zm165.1,9.55,23.507-2.629-7.835-13.735a27.551,27.551,0,0,1-7.649,1.073,14.391,14.391,0,0,1-1.554-.054Zm-17.847-4.454,11.007,3.917,6.779-16.042a23.794,23.794,0,0,1-5.162-2.2Zm42.908-17.008,10.2,17.92,15.422-26.182-18.9-2.79A19.921,19.921,0,0,1,192.466,411.724ZM56.03,424.762l48.754,3.219c2.923-7.994,5.037-14.647,6.281-18.993L52.734,407.54Zm91.165,2.039,12.437-14.11a20.739,20.739,0,0,1-2.923-2.576l-21.267-.536ZM2.115,420.845l45.831-3.38-1.928-10.032L.871,406.306Zm246.443-3.112,24.314,3,1.493-9.014-23.382-3.38Zm-32.773-4.078,29.476,3.649,2.488-9.5L221.445,404Zm-53.48-16.632c0,6.277,5.908,11.321,13.122,11.321,7.276,0,13.122-5.1,13.122-11.321,0-6.277-5.908-11.321-13.122-11.321S162.368,390.8,162.306,397.024Zm75.743,3.595,37.249,5.472,1.866-11.106-36.752-5.956Zm-102.67-.537,16.293.376a12.674,12.674,0,0,1-.311-3.434,19.588,19.588,0,0,1,.311-3.326l-13.8-5.741ZM107.4,387.045l-1.8,12.286,26.367.644,2.736-13.305L113.8,377.977Zm89.361.322a18.138,18.138,0,0,1,2.674,7.565l32.088,4.721,7.4-36.215Zm-143.9,10.677,49.438,1.234,1.679-11.589-46.889-8.745ZM2.115,396.809l44.027,1.073,1.617-7.3L5.535,386.776Zm238.857-10.623,36.689,6.009,1.368-8.423L244.64,368.428Zm-212.117-.215,19.527,1.771,7.524-33.908-16.23-6.76ZM6.53,383.986,25.559,385.7,36.628,345.84l-15.111-6.278Zm80.655-2.36,17.785,3.326,5.784-8.262-16.293-6.76Zm104.6.107a23.612,23.612,0,0,1,3.234,3.165l44.712-25.323.56-2.79-36.814-6.438Zm-67.348-9.872,31.4,13.037a23.555,23.555,0,0,1,7.9-6.062l-5.162-17.759ZM57.709,376.1l26.118,4.882,7.649-12.339L62.062,356.409Zm187.553-10.623,34.265,15.291,2.736-16.686-35.446-6.17Zm-82.521-29.133,11.691,39.864h1a26.59,26.59,0,0,1,6.592.8l13-35.142-5.908-12.608Zm-60.258,26.343,17.847,7.458,22.761-7.19L138.8,349.65Zm32.9-34.176,10.759,33.372,11.628-3.648-9.887-33.855ZM71.266,349.7,98.5,361.024l12.748-4.56L100.431,340.1Zm176.67,2.576,35.26,6.17,4.975-29.884-34.2-5.687Zm-144.4-13.252,10.758,16.31,23.569-8.477-5.6-17.329Zm101.985,5.848,35.944,6.278L247.5,321.8l-31.466-5.2ZM47.7,339.885l15.36,6.384L95.145,335.7,57.9,313.649ZM179.47,301.041l17.163,36.591,19.589-52.739ZM10.2,324.326l31.529,13.091L52.05,310.752,18.967,297.661Zm71.7-24.143-3.917,21.89,20.894,12.394,12.686-4.185,10.012-44.048c-8.892-2.683-19.216-5.795-28.232-8.531Zm67.783-8.638L162,333.607l25.931-6.974-18.718-39.864Zm-34.451,37.5L146.324,318.8l-8.084-27.577c-3.358-1.02-8.084-2.468-13.495-4.078ZM258.384,317.78c8.209,1.341,16.79,2.789,25.185,4.184l10.447-53.6-5.348-.858ZM59.015,310.859,75,320.3l3.42-19.261-15.049-1.556Zm159.072.268c7.4,1.234,21.205,3.488,36.939,6.117l2.3-3.809-31.093-24.3Zm26.056-11.856,14.676,11.535,26.367-43.78L268.4,264.4Zm-224.305-4.4,33.269,13.145L56.9,298.2,22.822,285.911Zm152.231-9.6,6.157,13.145L216.968,281.4l-34.762-7.672ZM64.549,296.8l14.8,1.5L90.232,276.79c-6.9-2.093-12.749-3.863-16.106-4.883Zm162.8-10.677,14.3,11.213,23.258-33.479-27.735-4.292Zm-186.372.161,18.034,6.492,8.768-22.641-17.91-4.775Zm107.831,2.468,20.334-4.99,9.515-10.837-36.814-8.1Zm-43.717-10.516,32.088,9.711L129.6,262.036l-18.283-4.721Zm-80.407,2.147L38,285.16,55.905,243.1,38.431,238.59Zm50.433-11.214,26.865,8.1,6.157-20.817-25.559-6.545Zm132.705,4.292,11.629,2.575,5.908-15.827-12.251-3.541ZM34.39,193.79,5.97,269.011,19.34,275.5l27.238-82.677Zm152.728,75.167,17.537,3.863L210,255.812,195.14,251.52Zm-20.832-35.249L154.1,239.77l7.711,23.5,18.843,4.132,16.666-36ZM51.117,262.626c3.731,1.019,12.873,3.488,17.785,4.775l7.4-19.1-17.225-4.4ZM137,248.3l2.985,10.248,18.034,3.97-6.9-21.246Zm59.325.536,30.036,8.638L236,231.561l-27.362-9.336Zm-97.694-.751,29.165,7.458-7.275-24.787Zm141.971,2.36,10.7,1.664,20.646-10.57c1-4.077,3.172-12.555,5.535-21.943l-23.631-4.829ZM65.731,206.13l-8.458,31.333L94.9,247.121l24.75-19.476-6.654-22.695Zm64.238,18.081,6.218,21.193L163.3,231.937c-3.234-3.756-12.686-14.593-15.609-17.974Zm145.889,15.237,14.365-7.351-9.888-10.408ZM40.235,233.118,54.1,236.659l5.41-20.066L46.826,213.1ZM150.428,212.3l16.107,18.51,32.088-2.361.622-1.341-32.834-24.09Zm59.45,7.243,27.175,9.282,6.218-16.793-26.118-8.209ZM187.8,214.983l12.749,9.336,10.634-23.07-8.022-5.044Zm-61-1.5,2.3,7.78,16.541-9.6-5.783-6.277Zm128.041-1.4,23.32,4.721c3.358-13.091,6.9-27.094,8.333-32.889L266.467,180.7ZM53.667,192.235,47.7,210.315,60.259,213.8l6.094-22.587ZM158.7,193.683,185.252,213.1l15.236-18.617-21.517-13.413Zm-16.168,9.98c1.866,2.039,4.477,4.882,5.845,6.384l15.36-8.96-7.836-5.741Zm75.8-2.468,25.932,8.1,3.98-10.785c-5.224-2.253-14.3-6.331-23.631-10.944ZM114.547,171.257l10.571,36.215,29.29-18.187L146.324,166Zm-44.712,19.69-3.358,12.34,45.645-1.18-4.167-14.271Zm112-11.643,30.658,19.154,6.343-13.788c-7.773-3.971-15.236-8.209-20.335-12.018a29.474,29.474,0,0,1-2.487-2.146Zm19.34-12.339a18.185,18.185,0,0,0,1.617,1.341c11.5,8.531,36.5,19.9,47.51,24.734l7.338-19.744-29.85-26.021ZM48.816,148.777l5.162,37.717L69.4,185.206,63.555,146.9ZM154.16,168.842l5.907,16.954,14.925-9.228-6.157-13.788ZM72.7,184.938l33.643-2.736-1.617-5.579L69.835,166.106ZM14.179,135.095l1.306,17.061,31.4,31.118-7.027-50.916ZM268.52,175.173l19.216,3.112,4.477-23.607L277.1,152.049Zm-107.333-37.5,16.6,37.127,14.241-8.853c-8.644-11.32-15.671-30.1-19.465-41.58Zm-94.337,8.8,2.488,16.471L103.727,173.3l-8.893-30.421Zm34.389-20.6,12.437,42.653,31.653-5.312L131.151,122.7Zm131.586,17.651,27.113,23.661,11.691-31.6-17.6-7.779Zm-84.387,9.014,4.726,13.52,14.489-6.009-8.83-19.69Zm38.307-9.121c3.047,7.028,6.592,13.95,10.448,19.047l10.385-7.726-9.2-15.183Zm14.739-4.989,8.706,14.379,12.81-9.55-11.255-8.263ZM137.8,122.058l9.452,27.094,24.191-28.328c-.249-.805-.5-1.556-.684-2.254Zm-91.351,9.6,1.99,14.271,45.582-5.794L90.17,127.047Zm173.872-18.349-6.405,19.529,11.629,8.531,36.752-27.2a19.382,19.382,0,0,1-2.425-5.043Zm-42.908,4.56c1.617,5.258,4.54,13.95,8.209,22.8l25.123-8.37,6.095-18.617Zm79.288,7.941,15.919,7.028,3.421-9.121a25.626,25.626,0,0,1-9.7-5.043ZM10.7,113.366,12.935,125.6,38,122.97,34.514,110.2C29.6,110.844,19.589,112.186,10.7,113.366Zm33.83,8.906L89.611,117.5,87.87,111.81l-46.7-1.878Zm55.656-5.9,27.611-2.9L111.127,90.4Zm169.955-12.555c0,6.278,5.908,11.321,13.121,11.321s13.122-5.043,13.122-11.321S290.471,92.5,283.258,92.5C275.982,92.5,270.137,97.592,270.137,103.816ZM113.3,88.042,131.4,113.1l10.634-1.127L142.1,84.18ZM94.9,112.24l16.79-39.7-31.59-9.6Zm50.557-28.489-.063,27.9,35.26-3.7L176.92,79.512ZM7.9,98.29l2.239,12.233,23.631-3.112L30.6,95.661Zm46.64-23.714,6.84,33.318,25.683,1.019L76.241,72.806ZM32.15,76.4l8.271,30.635,17.537.7L51.18,74.844ZM182.33,95.715l1.555,11.857,19.837-2.093-2.114-11.8ZM205.09,75.756l5.223,29.026,22.512-2.361-5.286-29.669Zm25.745-3.434,5.348,29.723,23.506-2.468a20.39,20.39,0,0,1,7.338-11.106l-11.069-19.53ZM4.229,78.707,7.338,95.446l22.449-2.576L25.5,76.937Zm175.925.429,1.8,13.734,19.153-1.985-2.549-14.218Zm65.046-50.7L276.728,83.8a1.651,1.651,0,0,0,.5-.107L268.769,25Zm30.1-4.4,8.458,59.017c.808.053,1.554.107,2.363.161l13.37-62.665ZM114.609,82.141,142.9,78.332l11.815-36.483-20.273-6.6Zm31.9-4.292,17.226-2.307,8.022-28.114-13.93-4.56Zm20.708-2.736,25.869-3.488L190.414,53.6l-15.609-5.1ZM27.176,58.32l2.052,12.608L74.5,67.172,69.587,51.023ZM198,59.339l1.679,11.374,53.17-7.136-6.841-12.072ZM96.575,64.918l16.231,4.936,6.9-16.363L102.3,47.267ZM79.1,59.553l14.366,4.4,5.783-17.812L72.137,36.375ZM191.782,17.115,197.566,56.5l21.765-3.542c-2.55-6.384-12-30.742-15.173-38.79ZM53.543,35.839c-7.525,4.185-17.287,7.3-28.419,9.6L26.74,55.529l42.038-7.243L63.119,29.4A71.858,71.858,0,0,1,53.543,35.839ZM207.391,13.413l15.236,39.059,21.89-3.595-22.2-39.059ZM103.229,44.477l17.6,6.331,11.132-26.4-20.273-6.062Zm55.657-4.292,31.093,10.194L187.429,33l-21.205-6.653ZM68.53,24.734,71.017,33,100.12,43.4l8.457-25.967L82.148,9.55A114.786,114.786,0,0,1,68.53,24.734Zm67.036,7.725,20.273,6.653,7.96-15.13,3.98-11.481-21.33-5.687Zm31.839-8.8,19.589,6.116-1.866-12.609L170.95,13.359ZM45.085,15.344,54.1,28.489a80.042,80.042,0,0,0,9.2-7.3L60.632,7.35ZM113.8,12.93l20.46,6.116,4.228-10.033L118.776,1.931ZM65.917,476ZM34.576,476ZM271.816,475.946ZM6.779,475.946Z" transform="translate(0.815)" fill="#fff"/>
        </g>
      </g>
      <g id="Group_382" data-name="Group 382" transform="translate(25 -5)">
        <g transform="matrix(1, 0, 0, 1, -10, 148)" filter="url(#Ellipse_26)">
          <g id="Ellipse_26-5" data-name="Ellipse 26" transform="translate(251 90)" fill="#a8c631" stroke="#fff" stroke-width="2">
            <circle cx="11.5" cy="11.5" r="11.5" stroke="none"/>
            <circle cx="11.5" cy="11.5" r="12.5" fill="none"/>
          </g>
        </g>
        <path id="Path_638" data-name="Path 638" d="M-.46,0V-9.36h-2l.7-1.2H.76V0Z" transform="translate(252.5 254.5)" fill="#fff"/>
      </g>
      <g id="Group_383" data-name="Group 383" transform="translate(-16 58)">
        <g transform="matrix(1, 0, 0, 1, 31, 85)" filter="url(#Ellipse_26-2)">
          <g id="Ellipse_26-6" data-name="Ellipse 26" transform="translate(210 153)" fill="#a8c631" stroke="#fff" stroke-width="2">
            <circle cx="11.5" cy="11.5" r="11.5" stroke="none"/>
            <circle cx="11.5" cy="11.5" r="12.5" fill="none"/>
          </g>
        </g>
        <path id="Path_639" data-name="Path 639" d="M-3.38,0,1.1-5.66a3.423,3.423,0,0,0,.92-1.9A1.911,1.911,0,0,0,1.4-8.98a1.9,1.9,0,0,0-1.38-.6,1.822,1.822,0,0,0-1.32.55,2.259,2.259,0,0,0-.66,1.39H-3.24A3.891,3.891,0,0,1-2.2-9.94a3,3,0,0,1,2.22-.84,3.072,3.072,0,0,1,2.26.92,2.945,2.945,0,0,1,.96,2.24,3.472,3.472,0,0,1-.76,2.18L-.88-1.2H3.24V0Z" transform="translate(252.5 254.5)" fill="#fff"/>
      </g>
      <g id="Group_384" data-name="Group 384" transform="translate(-3 150)">
        <g transform="matrix(1, 0, 0, 1, 18, -7)" filter="url(#Ellipse_26-3)">
          <g id="Ellipse_26-7" data-name="Ellipse 26" transform="translate(223 245)" fill="#a8c631" stroke="#fff" stroke-width="2">
            <circle cx="11.5" cy="11.5" r="11.5" stroke="none"/>
            <circle cx="11.5" cy="11.5" r="12.5" fill="none"/>
          </g>
        </g>
        <path id="Path_640" data-name="Path 640" d="M3.14-2.94A3.005,3.005,0,0,1,2.2-.64,3.291,3.291,0,0,1-.14.22a3.109,3.109,0,0,1-2.1-.74A2.9,2.9,0,0,1-3.26-2.6H-2a1.826,1.826,0,0,0,.66,1.22,1.988,1.988,0,0,0,1.3.46,1.9,1.9,0,0,0,.78-.16,1.875,1.875,0,0,0,.62-.44,2.082,2.082,0,0,0,.41-.66A2.213,2.213,0,0,0,1.92-3a2.007,2.007,0,0,0-.58-1.53,2.1,2.1,0,0,0-1.6-.51v-1.1q2.02-.04,2.02-1.68a1.773,1.773,0,0,0-.51-1.31A1.724,1.724,0,0,0-.02-9.64a1.65,1.65,0,0,0-1.7,1.5H-2.98a2.768,2.768,0,0,1,3-2.64,3.373,3.373,0,0,1,1.18.2,2.616,2.616,0,0,1,.93.58,2.854,2.854,0,0,1,.62.9,2.837,2.837,0,0,1,.23,1.16,2.628,2.628,0,0,1-1.3,2.36A2.775,2.775,0,0,1,3.14-2.94Z" transform="translate(252.5 254.5)" fill="#fff"/>
      </g>
      <g id="Group_385" data-name="Group 385" transform="translate(41 198)">
        <g transform="matrix(1, 0, 0, 1, -26, -55)" filter="url(#Ellipse_26-4)">
          <g id="Ellipse_26-8" data-name="Ellipse 26" transform="translate(267 293)" fill="#a8c631" stroke="#fff" stroke-width="2">
            <circle cx="11.5" cy="11.5" r="11.5" stroke="none"/>
            <circle cx="11.5" cy="11.5" r="12.5" fill="none"/>
          </g>
        </g>
        <path id="Path_641" data-name="Path 641" d="M2.38-1.54V0H1.16V-1.54H-3.86q.84-1.28,2.39-3.63T2.38-11v8.34H3.54v1.12ZM1.16-7.04-1.76-2.66H1.16Z" transform="translate(252 254.5)" fill="#fff"/>
      </g>
    </g>
  </g>
</svg>
