<svg xmlns="http://www.w3.org/2000/svg" xmlns:xlink="http://www.w3.org/1999/xlink" width="96.251" height="55" viewBox="0 0 96.251 55">
  <defs>
    <filter id="Path_278" x="2.202" y="2.201" width="32.646" height="45.399" filterUnits="userSpaceOnUse">
      <feOffset dx="0.4" dy="0.4" input="SourceAlpha"/>
      <feGaussianBlur stdDeviation="0.6" result="blur"/>
      <feFlood flood-opacity="0.396"/>
      <feComposite operator="in" in2="blur"/>
      <feComposite in="SourceGraphic"/>
    </filter>
  </defs>
  <g id="Group_254" data-name="Group 254" transform="translate(-4165 -7502)">
    <rect id="Rectangle_149" data-name="Rectangle 149" width="96.251" height="55" transform="translate(4165 7502)" fill="none"/>
    <g id="Group_252" data-name="Group 252" transform="translate(4168.509 7505.508)">
      <g id="Group_248" data-name="Group 248" transform="translate(0 0)">
        <g id="Group_242" data-name="Group 242" transform="translate(0.094 0.093)">
          <g transform="matrix(1, 0, 0, 1, -3.6, -3.6)" filter="url(#Path_278)">
            <path id="Path_278-2" data-name="Path 278" d="M131.57,132.568l28.9.1v41.7H131.421Z" transform="translate(-127.82 -128.97)" fill="#bacd33"/>
          </g>
          <path id="Path_252" data-name="Path 252" d="M227.148,270.087" transform="translate(-212.583 -249.163)" fill="#afca0b"/>
        </g>
        <g id="Group_243" data-name="Group 243" transform="translate(3.617 7.125)">
          <path id="Path_253" data-name="Path 253" d="M170.658,184.289a16.827,16.827,0,0,0-10.887,13.28c-1.176,7.811,3.872,13.971,11.831,13.984a24.612,24.612,0,0,0,7.3-1.067l1.842-10.3a9.707,9.707,0,0,1-6.141,2.567,4.639,4.639,0,0,1-4.712-5.412,6.627,6.627,0,0,1,6.306-5.392,7.716,7.716,0,0,1,5.47,2.836l1.562-10.468a35.18,35.18,0,0,0-7.045-.893A35.053,35.053,0,0,0,170.658,184.289Z" transform="translate(-158.837 -182.711)" fill="#fff" stroke="#fff" stroke-miterlimit="3.864" stroke-width="0.121" fill-rule="evenodd"/>
          <path id="Path_254" data-name="Path 254" d="M165.635,179.848a16.832,16.832,0,0,0-10.887,13.278c-1.175,7.81,3.873,13.97,11.831,13.986a24.675,24.675,0,0,0,7.3-1.067l1.841-10.3a9.686,9.686,0,0,1-6.136,2.562,4.639,4.639,0,0,1-4.716-5.411,6.63,6.63,0,0,1,6.311-5.39,7.7,7.7,0,0,1,5.464,2.834l1.566-10.466a29.693,29.693,0,0,0-6.637-1.088A29.471,29.471,0,0,0,165.635,179.848Z" transform="translate(-154.579 -178.784)" fill="#da1f26" fill-rule="evenodd"/>
        </g>
        <g id="Group_246" data-name="Group 246" transform="translate(2.227 6.593)">
          <g id="Group_244" data-name="Group 244" transform="translate(0.495 0.72)">
            <path id="Path_255" data-name="Path 255" d="M188.6,195.847l-.67,4.488,2.074.006.671-4.49Z" transform="translate(-181.963 -193.438)" fill="#1d1d1b" fill-rule="evenodd"/>
            <path id="Path_256" data-name="Path 256" d="M195.109,181.014c.168-.58-.245-1-.909-1a1.273,1.273,0,0,0-1.326.994.9.9,0,0,0,.989,1.085A1.181,1.181,0,0,0,195.109,181.014Z" transform="translate(-186.143 -180.016)" fill="#1d1d1b" fill-rule="evenodd"/>
            <path id="Path_257" data-name="Path 257" d="M150.941,188.036l.168-1h.246c.335,0,.914,0,.829.5s-.58.5-.994.5Zm.583-2.325-.165,0,.085-.913h.167c.333,0,.744-.081.662.417C152.19,185.631,151.857,185.709,151.524,185.712Zm-1.818-2.5-1.008,6.315,2.986,0c1.075,0,2.325-.408,2.492-1.656a1.4,1.4,0,0,0-.826-1.583,1.528,1.528,0,0,0,1-1.246c.17-1.494-.988-1.825-2.15-1.832Z" transform="translate(-148.698 -182.727)" fill="#1d1d1b" fill-rule="evenodd"/>
            <path id="Path_258" data-name="Path 258" d="M209.339,198.265a.471.471,0,0,1-.5-.584c.087-.332.336-.664.667-.664s.5.333.413.664A.57.57,0,0,1,209.339,198.265Zm2.239,1.418.673-4.241h-2.074v.663h-.086a1.075,1.075,0,0,0-1.078-.75,2.488,2.488,0,0,0-2.237,2.324c-.173,1.083.322,2.327,1.48,2.329a1.734,1.734,0,0,0,1.414-.747l-.08.416a1.088,1.088,0,0,1-1.083,1,2.091,2.091,0,0,1-1.408-.5l-.669,1.5.167.077a4,4,0,0,0,1.738.338C209.833,202.089,211.324,201.424,211.577,199.683Z" transform="translate(-197.645 -193.02)" fill="#1d1d1b" fill-rule="evenodd"/>
          </g>
          <g id="Group_245" data-name="Group 245">
            <path id="Path_259" data-name="Path 259" d="M185.349,191.109l-.67,4.488h1.99l.67-4.483Z" transform="translate(-178.709 -188.701)" fill="#feeb00" fill-rule="evenodd"/>
            <path id="Path_260" data-name="Path 260" d="M191.717,176.281c.083-.582-.328-1-1-1a1.186,1.186,0,0,0-1.242,1c-.168.747.328,1.082.907,1.082A1.211,1.211,0,0,0,191.717,176.281Z" transform="translate(-182.751 -175.282)" fill="#feeb00" fill-rule="evenodd"/>
            <path id="Path_261" data-name="Path 261" d="M147.686,183.3l.165-1h.25c.334,0,.915,0,.831.5s-.664.5-1,.5Zm.588-2.325h-.253l.17-.918h.163c.331.005.748-.077.663.419C148.936,180.892,148.6,180.974,148.274,180.974Zm-1.9-2.5-.925,6.315,2.987.006a2.27,2.27,0,0,0,2.488-1.657,1.35,1.35,0,0,0-.909-1.578,1.539,1.539,0,0,0,.995-1.333c.257-1.409-.907-1.746-2.063-1.749Z" transform="translate(-145.445 -177.99)" fill="#feeb00" fill-rule="evenodd"/>
            <path id="Path_262" data-name="Path 262" d="M207.872,194.949l.587-4.235-1.989-.005v.662h-.082a1.177,1.177,0,0,0-1.16-.748,2.482,2.482,0,0,0-2.162,2.323c-.168,1.081.327,2.326,1.486,2.327a1.48,1.48,0,0,0,1.329-.745h.084l-.084.418a1.163,1.163,0,0,1-1.16.995,2.223,2.223,0,0,1-1.409-.5l-.667,1.5.248.083a5.925,5.925,0,0,0,1.743.338C206.125,197.356,207.618,196.691,207.872,194.949Zm-2.235-1.417c-.418,0-.578-.253-.5-.583a.714.714,0,0,1,.663-.662c.333,0,.5.332.417.663S205.965,193.532,205.637,193.532Z" transform="translate(-193.942 -188.289)" fill="#feeb00" fill-rule="evenodd"/>
          </g>
        </g>
        <g id="Group_247" data-name="Group 247" transform="translate(2.344 4.551)">
          <path id="Path_263" data-name="Path 263" d="M147.368,167.943l.112-.62h-.5l-.114.643c-.012.048-.048.1-.1.1s-.071-.048-.062-.1l.115-.643h-.5l-.108.618c-.049.27.235.388.5.388S147.318,168.212,147.368,167.943Z" transform="translate(-146.214 -166.491)" fill="#fff" fill-rule="evenodd"/>
          <path id="Path_264" data-name="Path 264" d="M148.49,165.046l-1.121-.007-.03.172,1.12,0Z" transform="translate(-147.167 -164.557)" fill="#fff" fill-rule="evenodd"/>
          <path id="Path_265" data-name="Path 265" d="M149.147,162.228l.35,0,.029-.174-.158.024c.03-.069-.013-.193-.163-.21a.306.306,0,0,0-.257.119.211.211,0,0,0-.222-.122.28.28,0,0,0-.223.356h.167c.016-.2.239-.216.176,0h.131C148.98,162.025,149.214,162.013,149.147,162.228Z" transform="translate(-148.15 -161.868)" fill="#fff" fill-rule="evenodd"/>
          <path id="Path_266" data-name="Path 266" d="M154.937,167.18c-.269,0-.594.118-.646.39l-.11.621.5,0,.114-.642c.012-.05.046-.1.1-.1s.072.048.062.1l-.114.64.494,0,.11-.624C155.488,167.3,155.2,167.18,154.937,167.18Z" transform="translate(-152.969 -166.372)" fill="#fff" fill-rule="evenodd"/>
          <path id="Path_267" data-name="Path 267" d="M163.632,167.229l-.04.245a.116.116,0,0,1-.1.1c-.049,0-.07-.052-.064-.1l.049-.247c.015-.074.1-.089.115-.153l.046-.25a.664.664,0,0,1-.289.059.549.549,0,0,1-.277-.062l-.027.16c.025-.031.089-.035.1.006.028.1-.138.127-.17.241l-.041.247c-.044.245.18.365.506.368s.6-.119.641-.366l.04-.207c.022-.136-.084-.133-.084-.133l0-.012a.162.162,0,0,0,.132-.151l.043-.236-.477,0-.06.321a.118.118,0,0,1-.062.1S163.653,167.161,163.632,167.229Z" transform="translate(-160.39 -165.994)" fill="#fff" fill-rule="evenodd"/>
          <path id="Path_268" data-name="Path 268" d="M164.1,164.718l-.027.149,1.126,0,.039-.245-.447,0-.016.1Z" transform="translate(-161.356 -164.203)" fill="#fff" fill-rule="evenodd"/>
        </g>
        <path id="Path_269" data-name="Path 269" d="M160.039,173.94H130.806v-.093l.149-41.892h.093l28.99.1Zm-29.046-.186h28.86v-41.51l-28.711-.1Z" transform="translate(-130.806 -131.954)" fill="#fff"/>
      </g>
      <g id="Group_249" data-name="Group 249" transform="translate(34.99 0.816)">
        <path id="Path_270" data-name="Path 270" d="M369.533,137.319a10.651,10.651,0,0,1,5.123,1.33v3.129a10.023,10.023,0,0,0-5.019-1.708,3.635,3.635,0,0,0-2.079.515,1.592,1.592,0,0,0-.749,1.375q0,1.03,1.395,1.9.391.261,3.011,1.46a8.642,8.642,0,0,1,3.233,2.346,4.946,4.946,0,0,1,.991,3.1,4.736,4.736,0,0,1-1.688,3.787A6.5,6.5,0,0,1,369.376,156a10.353,10.353,0,0,1-3-.385,13.03,13.03,0,0,1-2.822-1.323v-3.468a8.847,8.847,0,0,0,5.5,2.425,3.548,3.548,0,0,0,2.086-.56,1.736,1.736,0,0,0,.8-1.486,2.349,2.349,0,0,0-1.382-2.06q-1.147-.626-2.959-1.5a8.716,8.716,0,0,1-3.213-2.282,4.645,4.645,0,0,1-1.063-3.024,4.436,4.436,0,0,1,1.708-3.657A7.021,7.021,0,0,1,369.533,137.319Z" transform="translate(-362.927 -137.319)"/>
        <path id="Path_271" data-name="Path 271" d="M454.668,176.987a8.817,8.817,0,0,1,3.846.821v2.724a6.483,6.483,0,0,0-3.233-.991,3.889,3.889,0,0,0-2.679,6.544,3.792,3.792,0,0,0,2.8,1.043,9.048,9.048,0,0,0,3.337-.86v2.594a10.251,10.251,0,0,1-3.9.769,6.821,6.821,0,0,1-4.8-1.695,5.814,5.814,0,0,1-1.845-4.5,6.264,6.264,0,0,1,1.806-4.68A6.387,6.387,0,0,1,454.668,176.987Z" transform="translate(-434.888 -170.951)"/>
        <path id="Path_272" data-name="Path 272" d="M530.173,176.987a5.6,5.6,0,0,1,3.585,1A3.375,3.375,0,0,1,535,180.768v5.958q0,.691.561.691a1.687,1.687,0,0,0,.659-.2,2.912,2.912,0,0,0,.71-.463V188.6a6,6,0,0,1-3.076,1.03,2.526,2.526,0,0,1-1.323-.287,1.575,1.575,0,0,1-.645-1.017,6.342,6.342,0,0,1-3.689,1.3,3.191,3.191,0,0,1-2.262-.887,2.81,2.81,0,0,1-.945-2.125,3.313,3.313,0,0,1,.938-2.49,7.978,7.978,0,0,1,3.285-1.59l2.594-.756v-.561q0-1.786-2.164-1.786a5.187,5.187,0,0,0-2.2.508,6.253,6.253,0,0,0-1.995,1.5v-2.881A7.4,7.4,0,0,1,530.173,176.987Zm-1.955,9.151a1.409,1.409,0,0,0,.423,1.069,1.462,1.462,0,0,0,1.05.4,3.16,3.16,0,0,0,2.112-.965V183.44a14.922,14.922,0,0,0-2.105.86,3.857,3.857,0,0,0-1.121.821A1.507,1.507,0,0,0,528.218,186.139Z" transform="translate(-499.998 -170.951)"/>
        <path id="Path_273" data-name="Path 273" d="M619.593,176.987a4.012,4.012,0,0,1,3.122,1.284,4.837,4.837,0,0,1,1.167,3.383V189.4h-3.194V181.98a2.873,2.873,0,0,0-.567-1.877,1.893,1.893,0,0,0-1.545-.691,2.461,2.461,0,0,0-1.395.437,6.56,6.56,0,0,0-1.434,1.453v8.1H612.54V177.221h3.207v1.708a5.712,5.712,0,0,1,1.819-1.492A4.6,4.6,0,0,1,619.593,176.987Z" transform="translate(-574.232 -170.951)"/>
        <path id="Path_274" data-name="Path 274" d="M367.1,306.6a4.362,4.362,0,0,1,2.926.994,3.186,3.186,0,0,1,1.169,2.542,3.494,3.494,0,0,1-.7,2.086,8.037,8.037,0,0,1-2.135,1.91l2.108,2.438a9.791,9.791,0,0,0,1.713-2.438h2.789a13.023,13.023,0,0,1-2.811,4.326l3.085,3.48h-3.832L370,320.324a8.322,8.322,0,0,1-2.245,1.389,7.106,7.106,0,0,1-2.585.423,4.57,4.57,0,0,1-3.129-1.12,3.517,3.517,0,0,1-1.274-2.745,3.622,3.622,0,0,1,.917-2.421,9.026,9.026,0,0,1,2.608-1.982,9.173,9.173,0,0,1-1.175-1.828,3.972,3.972,0,0,1-.373-1.663,3.422,3.422,0,0,1,1.224-2.728A4.648,4.648,0,0,1,367.1,306.6Zm-3.371,11.473a1.6,1.6,0,0,0,.565,1.241,1.952,1.952,0,0,0,1.345.5,4.382,4.382,0,0,0,2.789-1.273l-2.635-2.954a7.842,7.842,0,0,0-1.515,1.2A1.841,1.841,0,0,0,363.734,318.073Zm1.8-7.916a2.324,2.324,0,0,0,.406,1.169,5.11,5.11,0,0,0,.944,1.148,6.164,6.164,0,0,0,1.274-1,1.681,1.681,0,0,0,.472-1.186,1.38,1.38,0,0,0-.439-1.043,1.575,1.575,0,0,0-1.131-.417,1.638,1.638,0,0,0-1.071.373A1.18,1.18,0,0,0,365.534,310.157Z" transform="translate(-360.769 -280.843)"/>
        <path id="Path_275" data-name="Path 275" d="M481.62,288.208a5.831,5.831,0,0,1,4.126,1.471,4.932,4.932,0,0,1,1.587,3.79,4.875,4.875,0,0,1-1.607,3.8,6.08,6.08,0,0,1-4.237,1.451h-3.369v7.592h-3.5v-18.1Zm-.868,7.774a3.358,3.358,0,0,0,2.184-.641,2.31,2.31,0,0,0,.784-1.9q0-2.5-3.213-2.5h-2.384v5.04Z" transform="translate(-457.3 -265.249)"/>
        <path id="Path_276" data-name="Path 276" d="M567.414,326.1a5.57,5.57,0,0,1,3.564.991,3.354,3.354,0,0,1,1.231,2.766v5.921q0,.687.557.686a1.675,1.675,0,0,0,.654-.2,2.9,2.9,0,0,0,.706-.46v1.84a5.971,5.971,0,0,1-3.058,1.024,2.514,2.514,0,0,1-1.316-.285,1.567,1.567,0,0,1-.641-1.011,6.305,6.305,0,0,1-3.667,1.3,3.171,3.171,0,0,1-2.248-.881,2.794,2.794,0,0,1-.939-2.112,3.293,3.293,0,0,1,.933-2.475,7.933,7.933,0,0,1,3.266-1.581l2.579-.752v-.557q0-1.775-2.151-1.775a5.155,5.155,0,0,0-2.189.505,6.218,6.218,0,0,0-1.983,1.49v-2.863A7.354,7.354,0,0,1,567.414,326.1Zm-1.943,9.1a1.4,1.4,0,0,0,.421,1.063,1.452,1.452,0,0,0,1.043.4,3.141,3.141,0,0,0,2.1-.959v-3.187a14.87,14.87,0,0,0-2.093.855,3.829,3.829,0,0,0-1.114.817A1.5,1.5,0,0,0,565.471,335.2Z" transform="translate(-531.6 -297.379)"/>
        <path id="Path_277" data-name="Path 277" d="M641.615,327.635l2.864,6.5,2.9-6.5H650.8l-8.357,18.2h-3.421l3.848-8.331-4.7-9.873Z" transform="translate(-595.96 -298.678)"/>
      </g>
    </g>
  </g>
</svg>
